<?xml version="1.0" encoding="UTF-8" standalone="no"?>
<!-- Created with Inkscape (http://www.inkscape.org/) -->

<svg
   xmlns:dc="http://purl.org/dc/elements/1.1/"
   xmlns:cc="http://creativecommons.org/ns#"
   xmlns:rdf="http://www.w3.org/1999/02/22-rdf-syntax-ns#"
   xmlns:svg="http://www.w3.org/2000/svg"
   xmlns="http://www.w3.org/2000/svg"
   xmlns:sodipodi="http://sodipodi.sourceforge.net/DTD/sodipodi-0.dtd"
   xmlns:inkscape="http://www.inkscape.org/namespaces/inkscape"
   width="744.09448819"
   height="1052.3622047"
   id="svg2"
   version="1.1"
   inkscape:version="0.47 r22583"
   sodipodi:docname="drawing.svg">
  <defs
     id="defs4">
    <inkscape:perspective
       sodipodi:type="inkscape:persp3d"
       inkscape:vp_x="0 : 526.18109 : 1"
       inkscape:vp_y="0 : 1000 : 0"
       inkscape:vp_z="744.09448 : 526.18109 : 1"
       inkscape:persp3d-origin="372.04724 : 350.78739 : 1"
       id="perspective10" />
    <inkscape:perspective
       id="perspective2826"
       inkscape:persp3d-origin="0.5 : 0.33333333 : 1"
       inkscape:vp_z="1 : 0.5 : 1"
       inkscape:vp_y="0 : 1000 : 0"
       inkscape:vp_x="0 : 0.5 : 1"
       sodipodi:type="inkscape:persp3d" />
    <inkscape:perspective
       id="perspective3622"
       inkscape:persp3d-origin="0.5 : 0.33333333 : 1"
       inkscape:vp_z="1 : 0.5 : 1"
       inkscape:vp_y="0 : 1000 : 0"
       inkscape:vp_x="0 : 0.5 : 1"
       sodipodi:type="inkscape:persp3d" />
    <inkscape:perspective
       id="perspective3645"
       inkscape:persp3d-origin="0.5 : 0.33333333 : 1"
       inkscape:vp_z="1 : 0.5 : 1"
       inkscape:vp_y="0 : 1000 : 0"
       inkscape:vp_x="0 : 0.5 : 1"
       sodipodi:type="inkscape:persp3d" />
    <inkscape:perspective
       id="perspective3676"
       inkscape:persp3d-origin="0.5 : 0.33333333 : 1"
       inkscape:vp_z="1 : 0.5 : 1"
       inkscape:vp_y="0 : 1000 : 0"
       inkscape:vp_x="0 : 0.5 : 1"
       sodipodi:type="inkscape:persp3d" />
    <inkscape:perspective
       id="perspective3710"
       inkscape:persp3d-origin="0.5 : 0.33333333 : 1"
       inkscape:vp_z="1 : 0.5 : 1"
       inkscape:vp_y="0 : 1000 : 0"
       inkscape:vp_x="0 : 0.5 : 1"
       sodipodi:type="inkscape:persp3d" />
    <inkscape:perspective
       id="perspective3733"
       inkscape:persp3d-origin="0.5 : 0.33333333 : 1"
       inkscape:vp_z="1 : 0.5 : 1"
       inkscape:vp_y="0 : 1000 : 0"
       inkscape:vp_x="0 : 0.5 : 1"
       sodipodi:type="inkscape:persp3d" />
    <inkscape:perspective
       id="perspective3756"
       inkscape:persp3d-origin="0.5 : 0.33333333 : 1"
       inkscape:vp_z="1 : 0.5 : 1"
       inkscape:vp_y="0 : 1000 : 0"
       inkscape:vp_x="0 : 0.5 : 1"
       sodipodi:type="inkscape:persp3d" />
    <inkscape:perspective
       id="perspective3800"
       inkscape:persp3d-origin="0.5 : 0.33333333 : 1"
       inkscape:vp_z="1 : 0.5 : 1"
       inkscape:vp_y="0 : 1000 : 0"
       inkscape:vp_x="0 : 0.5 : 1"
       sodipodi:type="inkscape:persp3d" />
    <inkscape:perspective
       id="perspective3837"
       inkscape:persp3d-origin="0.5 : 0.33333333 : 1"
       inkscape:vp_z="1 : 0.5 : 1"
       inkscape:vp_y="0 : 1000 : 0"
       inkscape:vp_x="0 : 0.5 : 1"
       sodipodi:type="inkscape:persp3d" />
    <inkscape:perspective
       id="perspective3872"
       inkscape:persp3d-origin="0.5 : 0.33333333 : 1"
       inkscape:vp_z="1 : 0.5 : 1"
       inkscape:vp_y="0 : 1000 : 0"
       inkscape:vp_x="0 : 0.5 : 1"
       sodipodi:type="inkscape:persp3d" />
    <inkscape:perspective
       id="perspective3894"
       inkscape:persp3d-origin="0.5 : 0.33333333 : 1"
       inkscape:vp_z="1 : 0.5 : 1"
       inkscape:vp_y="0 : 1000 : 0"
       inkscape:vp_x="0 : 0.5 : 1"
       sodipodi:type="inkscape:persp3d" />
  </defs>
  <sodipodi:namedview
     id="base"
     pagecolor="#ffffff"
     bordercolor="#666666"
     borderopacity="1.0"
     inkscape:pageopacity="0.0"
     inkscape:pageshadow="2"
     inkscape:zoom="1.4"
     inkscape:cx="224.0879"
     inkscape:cy="200.81576"
     inkscape:document-units="px"
     inkscape:current-layer="layer1"
     showgrid="false"
     inkscape:window-width="1280"
     inkscape:window-height="772"
     inkscape:window-x="0"
     inkscape:window-y="1"
     inkscape:window-maximized="1">
    <inkscape:grid
       type="xygrid"
       id="grid3823" />
  </sodipodi:namedview>
  <metadata
     id="metadata7">
    <rdf:RDF>
      <cc:Work
         rdf:about="">
        <dc:format>image/svg+xml</dc:format>
        <dc:type
           rdf:resource="http://purl.org/dc/dcmitype/StillImage" />
        <dc:title></dc:title>
      </cc:Work>
    </rdf:RDF>
  </metadata>
  <g
     inkscape:label="Layer 1"
     inkscape:groupmode="layer"
     id="layer1">
    <path
       id="shape-0"
       style="fill:#ffff00;stroke:#f30000;stroke-width:1px;stroke-linecap:butt;stroke-linejoin:round;stroke-opacity:1"
       d="M 138.50001,899.0943 C 138.50001,899.0943 127.05782,919.32011 123.5,931.0586 119.94218,942.79709 118.72534,958.40832 117.78571,968.91575 116.84608,979.42318 116.44566,986.85654 117.07143,993.91574 117.6972,1000.9749 122.34911,1005.4766 120.64285,1011.0586 118.51536,1018.0187 111.96007,1028.4183 105,1026.2908 99.417966,1024.5845 102.05435,1016.2071 101.42858,1009.1479 100.80281,1002.0887 101.20323,994.65534 102.14286,984.14791 103.08249,973.64048 104.29933,958.02925 107.85715,946.29076 111.41497,934.55227 122.85715,914.32646 122.85715,914.32646 122.85715,914.32646 102.48635,925.92153 90.714286,929.50504 78.942218,933.08855 63.364577,934.2797 52.857143,935.21933 42.349709,936.15896 34.916316,936.55938 27.857143,935.93361 20.79797,935.30784 12.346156,937.96641 10.714285,932.36219 8.679553,925.37445 19.369399,919.16476 26.357137,917.13003 31.961358,915.49816 36.440822,920.07568 43.499995,920.70145 50.559168,921.32722 57.992561,920.9268 68.499995,919.98717 79.00743,919.04754 94.58507,917.85639 106.35714,914.27288 118.1292,910.68937 138.50001,899.0943 138.50001,899.0943"
       sodipodi:nodetypes="csssaassscsssaasssc"
       inkscape:label="#path2816-9-4" />
    <path
       id="shape-1"
       style="fill:#ffff00;stroke:#f30000;stroke-width:1px;stroke-linecap:butt;stroke-linejoin:miter;stroke-opacity:1"
       d="M 180.63475,860.11068 C 176.39193,855.5809 173.74876,851.50319 169.35234,844.49354 166.92852,839.59324 166.79839,833.89257 167.83365,828.61256 168.53348,821.96218 172.04058,816.10405 173.72919,809.71894 175.4178,803.33383 168.51458,809.04342 166.82597,815.42853 165.13736,821.81364 161.63026,827.67177 160.93043,834.32215 159.89517,839.60216 160.0253,845.30283 162.44912,850.20313 166.84554,857.21278 169.48871,861.29049 173.97508,866.07378 178.74841,870.57012 182.82612,873.21329 189.83577,877.60971 194.73607,880.03353 200.43674,880.16366 205.71675,879.1284 212.36713,878.42857 218.22526,874.92147 224.61037,873.23286 230.99548,871.54425 236.70507,864.64103 230.31996,866.32964 223.93485,868.01825 218.07672,871.52535 211.42634,872.22518 206.14633,873.26044 200.44566,873.13031 195.54536,870.70649 188.53571,866.31007 184.458,863.6669 179.92822,859.42408"
       sodipodi:nodetypes="cccsscccccssccc"
       inkscape:label="#path3662-5-7-6" />
    <path
       id="shape-2"
       style="fill:#ffff00;stroke:#f30000;stroke-width:0.30199999;stroke-linecap:butt;stroke-linejoin:miter;stroke-miterlimit:4;stroke-opacity:1;stroke-dasharray:none"
       d="M 253.94992,791.55308 C 252.50897,790.19575 251.27801,789.39784 249.16197,788.07067 247.68269,787.33898 245.9618,787.29969 244.3679,787.61221 242.36031,787.82347 240.59189,788.88218 238.66438,789.39193 236.73688,789.90168 235.01329,791.98559 236.9408,791.47584 238.86831,790.96609 240.63673,789.90739 242.64431,789.69613 244.23822,789.3836 245.95911,789.42289 247.43839,790.15458 249.55443,791.48175 250.67874,792.17602 252.04617,793.45682 253.32697,794.82425 254.01824,795.95158 255.34541,798.06762 256.0771,799.5469 256.11639,801.26779 255.80387,802.8617 255.5926,804.86928 254.5339,806.6377 254.02415,808.56521 253.5144,810.49272 255.59831,808.76913 256.10806,806.84163 256.61781,804.91412 257.67652,803.14569 257.88778,801.13811 258.2003,799.54421 258.16101,797.82332 257.42932,796.34404 256.10215,794.228 255.30424,792.99704 253.94992,791.55308"
       sodipodi:nodetypes="cccsscccccssccc"
       inkscape:label="#path3662-5-7-6-9" />
    <path
       id="shape-3"
       style="fill:#ffff00;stroke:#f30000;stroke-width:0.04969809;stroke-linecap:butt;stroke-linejoin:miter;stroke-miterlimit:4;stroke-opacity:1;stroke-dasharray:none"
       d="M 280.84411,766.59742 C 281.23424,766.98756 281.24381,767.86247 280.85366,768.25261 280.46596,768.64029 279.59655,768.63075 279.20886,768.24305 278.81873,767.85291 278.80916,766.978 279.19931,766.58787 279.58701,766.20019 280.45642,766.20972 280.84411,766.59742"
       sodipodi:nodetypes="caaac"
       inkscape:label="#path3827-4-3-4" />
  </g>
</svg>
