<?xml version="1.0" encoding="UTF-8" standalone="no"?>
<!-- Created with Inkscape (http://www.inkscape.org/) -->

<svg
   xmlns:dc="http://purl.org/dc/elements/1.1/"
   xmlns:cc="http://creativecommons.org/ns#"
   xmlns:rdf="http://www.w3.org/1999/02/22-rdf-syntax-ns#"
   xmlns:svg="http://www.w3.org/2000/svg"
   xmlns="http://www.w3.org/2000/svg"
   xmlns:sodipodi="http://sodipodi.sourceforge.net/DTD/sodipodi-0.dtd"
   xmlns:inkscape="http://www.inkscape.org/namespaces/inkscape"
   width="350"
   height="300.84091"
   id="svg3074"
   version="1.1"
   inkscape:version="0.47 r22583"
   sodipodi:docname="savannah2.svg">
  <defs
     id="defs3076">
    <inkscape:perspective
       sodipodi:type="inkscape:persp3d"
       inkscape:vp_x="0 : 526.18109 : 1"
       inkscape:vp_y="0 : 1000 : 0"
       inkscape:vp_z="744.09448 : 526.18109 : 1"
       inkscape:persp3d-origin="372.04724 : 350.78739 : 1"
       id="perspective3082" />
    <inkscape:perspective
       id="perspective3063"
       inkscape:persp3d-origin="0.5 : 0.33333333 : 1"
       inkscape:vp_z="1 : 0.5 : 1"
       inkscape:vp_y="0 : 1000 : 0"
       inkscape:vp_x="0 : 0.5 : 1"
       sodipodi:type="inkscape:persp3d" />
    <inkscape:perspective
       id="perspective3302"
       inkscape:persp3d-origin="0.5 : 0.33333333 : 1"
       inkscape:vp_z="1 : 0.5 : 1"
       inkscape:vp_y="0 : 1000 : 0"
       inkscape:vp_x="0 : 0.5 : 1"
       sodipodi:type="inkscape:persp3d" />
    <inkscape:perspective
       id="perspective4359"
       inkscape:persp3d-origin="0.5 : 0.33333333 : 1"
       inkscape:vp_z="1 : 0.5 : 1"
       inkscape:vp_y="0 : 1000 : 0"
       inkscape:vp_x="0 : 0.5 : 1"
       sodipodi:type="inkscape:persp3d" />
  </defs>
  <sodipodi:namedview
     id="base"
     pagecolor="#ffffff"
     bordercolor="#666666"
     borderopacity="1.0"
     inkscape:pageopacity="0.0"
     inkscape:pageshadow="2"
     inkscape:zoom="1.979899"
     inkscape:cx="301.32444"
     inkscape:cy="150.76637"
     inkscape:document-units="px"
     inkscape:current-layer="layer1"
     showgrid="false"
     inkscape:window-width="1280"
     inkscape:window-height="772"
     inkscape:window-x="0"
     inkscape:window-y="1"
     inkscape:window-maximized="1" />
  <metadata
     id="metadata3079">
    <rdf:RDF>
      <cc:Work
         rdf:about="">
        <dc:format>image/svg+xml</dc:format>
        <dc:type
           rdf:resource="http://purl.org/dc/dcmitype/StillImage" />
        <dc:title></dc:title>
      </cc:Work>
    </rdf:RDF>
  </metadata>
  <g
     inkscape:label="Layer 1"
     inkscape:groupmode="layer"
     id="layer1"
     transform="translate(-49.06296,-381.94173)">
    <path
       inkscape:export-filename="/home/nicholas/Work/heroku/snickertyjip/public/images/savannah1.png"
       inkscape:export-xdpi="34.104401"
       inkscape:export-ydpi="34.104401"
       style="fill:#ff6600;fill-opacity:1"
       d="m 360.96609,682.68853 c -317.5107,-0.34704 -0.1958,-0.52953 -317.96783,0 0,-87.80438 71.17953,-158.98389 158.98393,-158.98389 87.8044,0 158.9839,71.17951 158.9839,158.98389 z"
       id="path2990"
       sodipodi:nodetypes="ccsc" />
    <path
       style="fill:#333333;fill-opacity:1;stroke:none"
       d="M 153.9222,521.91585 149.25025,522.54719 C 149.25025,522.54719 146.5986,523.93615 146.34606,524.44123 146.09352,524.94631 145.08337,528.48184 145.08337,528.48184 L 147.22994,532.52245 148.36637,535.30037 148.49264,536.81559 149.50279,539.34098 147.98755,541.86636 146.97741,545.7807 149.31339,549.2531 163.51865,542.75025 C 163.51865,542.75025 163.51865,535.04783 163.13985,534.16395 162.76104,533.28006 157.96281,528.86065 157.45774,527.97676 156.95266,527.09288 155.31116,522.42093 155.31116,522.42093 L 153.9222,521.91585 z"
       id="path3325"
       sodipodi:nodetypes="ccscccccccccsscc" />
    <path
       style="fill:#333333"
       d="m 60.19341,677.53263 c 4.69302,-11.48353 14.05925,-28.74013 20.47643,-37.72633 7.51402,-10.52214 25.96519,-30.116 36.15254,-38.39149 3.63806,-2.95531 11.51716,-8.38933 17.50911,-12.07559 5.99195,-3.68626 15.21695,-9.94971 20.5,-13.91878 15.02894,-11.29098 21.76439,-15.83039 33.60555,-22.6487 6.05,-3.48367 15.05,-9.11136 20,-12.50596 4.95,-3.3946 16.425,-10.83168 25.5,-16.52683 17.03439,-10.6902 27.60779,-19.38883 34.02923,-27.9955 5.43985,-7.29105 12.08852,-11.77509 19.97077,-13.46882 1.925,-0.41365 5.3,-1.9678 7.5,-3.45368 5.63657,-3.80695 5.78405,-3.84225 25.36521,-6.0728 9.69914,-1.10486 20.33479,-2.4495 23.63479,-2.98808 3.3,-0.53859 11.85,-1.12962 19,-1.3134 12.83804,-0.32999 13.08721,-0.3809 20,-4.08614 8.65856,-4.64098 9.5,-5.33118 9.5,-7.79262 0,-1.0834 0.9,-3.11399 2,-4.51241 1.1,-1.39842 2,-3.14107 2,-3.87254 0,-2.38635 -3.60695,-3.49872 -8.08345,-2.49291 -5.77515,1.29758 -7.10152,0.59548 -6.35838,-3.36579 0.51847,-2.76369 0.15236,-3.60742 -2.55318,-5.88398 -4.42505,-3.72343 -7.5946,-3.3877 -14.0319,1.48629 -3.0102,2.27916 -7.72309,5.60025 -10.47309,7.3802 -6.41522,4.15227 -8.25405,6.26896 -8.66634,9.97586 -0.32298,2.90393 -0.54181,3.02309 -6.83366,3.72113 -3.575,0.39663 -8.60389,1.00177 -11.17532,1.34476 -4.40447,0.58749 -4.75842,0.45882 -6.10966,-2.22114 -0.78889,-1.56461 -1.72135,-4.04353 -2.07214,-5.50871 -0.35078,-1.46517 -2.44489,-4.0952 -4.65357,-5.84451 -7.18973,-5.69437 -10.68956,-13.95271 -11.86262,-27.99153 -0.57482,-6.8792 -0.81976,-7.52734 -2.95916,-7.83036 -3.16744,-0.44862 -5.99415,2.35431 -6.77463,6.71765 -1.01552,5.67728 -2.98941,7.29576 -7.98434,6.54673 -3.82879,-0.57417 -4.56756,-0.31523 -7.95342,2.78768 -3.55677,3.25954 -3.75555,3.77884 -4.22065,11.02618 -0.69621,10.84845 -0.14065,12.26341 6.03249,15.36418 6.61469,3.32255 6.37621,3.01975 4.23857,5.38181 -2.43741,2.69331 -5.06417,2.53115 -13.42719,-0.82889 -7.74332,-3.11105 -10.12378,-4.88437 -13.16735,-9.80897 -2.3875,-3.86305 -1.65463,-6.005 3.71437,-10.85601 4.63898,-4.19143 5.17293,-7.39781 1.88301,-11.30766 -3.90609,-4.64212 -7.55438,-4.91072 -18.63172,-1.37175 -5.15717,1.6476 -15.67667,4.17669 -23.37667,5.62019 -20.95549,3.92848 -26.72467,5.40049 -29.70951,7.5804 -3.13229,2.28759 -4.54059,2.58756 -2.90699,0.6192 0.70826,-0.85341 1.0569,-5.2282 0.93638,-11.75 -0.1056,-5.71471 0.27504,-14.44038 0.84587,-19.39038 1.17943,-10.22754 0.55109,-12.5 -3.45626,-12.5 -4.25217,0 -21.31227,10.05323 -23.90316,14.08574 -6.31309,9.82577 -9.30633,11.03759 -9.30633,3.76767 0,-3.26791 0.67609,-4.59531 4,-7.85341 7.97865,-7.82068 4.5313,-10.92329 -10,-9 -7.24084,0.95836 -10.14611,0.99217 -11.74462,0.13668 -1.16814,-0.62518 -3.72089,-1.13668 -5.67277,-1.13668 -3.17726,0 -4.08375,0.68063 -8.65702,6.5 -5.84728,7.44052 -7.74467,7.97569 -12.02639,3.3921 -3.67981,-3.93925 -4.36431,-3.79106 -22.02903,4.76937 -7.49641,3.63281 -14.13391,6.29356 -14.75,5.9128 -0.61609,-0.38077 -1.12017,-3.14075 -1.12017,-6.13329 0,-4.08428 -0.49235,-5.93333 -1.97456,-7.41554 -3.28849,-3.28849 -6.28126,-3.41214 -13.1706,-0.54417 -10.60323,4.41401 -11.79402,4.75081 -14.44485,4.08549 -1.8731,-0.47011 -3.23044,-2.11718 -5.08738,-6.17327 -3.23523,-7.06668 -5.46598,-8.1709 -12.0733,-5.9763 -5.80541,1.92825 -9.06357,1.12927 -11.90768,-2.92005 -5.73214,-8.16118 -6.486,-8.74111 -10.63866,-8.18412 -6.25987,0.83962 -15.68884,6.07365 -24.1533,13.40752 -4.30351,3.7287 -9.95845,8.35446 -12.56652,10.27946 -2.60807,1.925 -6.49883,5.3 -8.64612,7.5 -5.11316,5.23867 -27.09777,19.18443 -34.4835,21.87433 -5.53529,2.01597 -5.87605,2.03173 -7.55835,0.34942 -1.31999,-1.31999 -1.76592,-3.40698 -1.77845,-8.32336 -0.0269,-10.53729 -1.59873,-10.98485 -24.01673,-6.83842 -17.88871,3.3087 -19.6818,4.12015 -23.99136,10.85708 -1.91698,2.9967 -3.95006,5.73573 -4.51798,6.08672 -1.64561,1.01705 -3.99066,-5.94712 -3.99066,-11.85121 0,-9.3932 -0.52766,-9.4217 -23.27227,-1.25725 -16.03139,5.75467 -19.9282,7.74461 -22.87517,11.68147 -4.31756,5.76781 -16.26064,18.01031 -19.55767,20.04798 -2.1817,1.34837 -3.64495,3.30961 -4.4339,5.94289 -0.64766,2.16169 -1.44384,3.95454 -1.76928,3.98411 -0.32544,0.0296 -3.29171,0.17744 -6.59171,0.32862 -3.3,0.15117 -7.06266,0.64258 -8.36147,1.09202 -2.25466,0.7802 -2.32886,0.66356 -1.64041,-2.57862 0.39658,-1.86768 0.78425,-3.77516 0.86147,-4.23884 0.0772,-0.46368 -0.65571,-1.36368 -1.62874,-2 -1.40584,-0.91935 -2.43265,-0.76363 -5,0.75826 -1.77697,1.05337 -5.63386,3.24661 -8.57088,4.87387 -8.89656,4.92918 -11.47635,11.80462 -6.60262,17.59672 2.2244,2.64355 2.43451,3.48417 1.61378,6.45659 -1.26013,4.56383 0.78269,8.70565 5.62795,11.41064 2.03551,1.13638 9.26392,3.43298 16.06313,5.10356 11.78428,2.89543 12.54439,2.96454 16.259,1.47824 2.14323,-0.85755 5.13023,-1.31546 6.63779,-1.01757 10.12446,2.00053 14.70228,3.98138 26.26391,11.36458 18.97995,12.12051 24.44264,15.25734 31.14317,17.88326 3.38162,1.32524 6.86514,3.01508 7.74116,3.7552 2.8308,2.39164 11.88323,7.55591 12.3778,7.06134 0.82374,-0.82374 23.08138,10.11523 29.8103,14.65087 11.90172,8.02239 40.36928,32.00252 43.93371,37.0083 3.34896,4.70318 12.53808,11.06656 20.75719,14.37416 9.88422,3.97769 22.71457,15.51064 40.14444,36.08504 5.89702,6.96091 22.06932,32.37117 22.06932,34.6758 0,0.45331 6.77494,0.8242 15.05542,0.8242 l 15.05542,0 2.14553,-5.25 z m -9.03627,-34 c 0.50813,-10.79989 2.14122,-16.33917 6.07763,-20.61471 1.21125,-1.31561 9.62727,-7.32071 18.70227,-13.34467 9.075,-6.02395 15.55763,-9.90369 14.40585,-8.62163 -12.43702,13.84371 -19.75854,23.11031 -28.29318,35.80971 -5.56197,8.27612 -10.11267,15.4916 -10.11267,16.0344 0,0.54279 -0.28399,0.9869 -0.63108,0.9869 -0.3471,0 -0.41406,-4.6125 -0.14882,-10.25 z m -29.80326,-5.75 c -4.29312,-5.775 -8.37344,-12.075 -9.06737,-14 -2.50649,-6.95317 -1.37699,-17.55219 2.04278,-19.16903 2.24531,-1.06156 6.60775,-7.14146 6.60775,-9.20918 0,-0.68174 0.6209,-2.08866 1.37977,-3.12648 1.29597,-1.77234 1.50499,-1.64152 3.44113,2.15362 3.17411,6.22177 7.18131,21.63955 7.15966,27.54691 -0.0107,2.91729 -0.67143,9.80416 -1.46829,15.30416 -0.79687,5.5 -1.46312,10.4125 -1.48056,10.91667 -0.0409,1.18176 0.43637,1.75883 -8.61487,-10.41667 z m -36.56932,-36.66051 c -5.30887,-5.13672 -10.12165,-9.33949 -10.69506,-9.33949 -0.57342,0 -3.10739,-2.5875 -5.63106,-5.75 -2.52366,-3.1625 -8.24007,-8.9 -12.70313,-12.75 -7.12892,-6.14968 -9.01456,-8.55062 -15.5229,-19.76499 -6.56508,-11.31215 -7.23856,-12.93468 -5.91732,-14.25592 2.13567,-2.13567 2.88099,-5.12078 1.79552,-7.19132 -1.45553,-2.77642 0.41515,-6.21798 4.25097,-7.82069 3.63372,-1.51826 6.49672,-4.82094 11.05897,-12.7573 2.61688,-4.55226 2.66841,-4.88443 1.03727,-6.68682 -1.62419,-1.79471 -1.61713,-2.00058 0.13141,-3.8317 1.01777,-1.06584 3.94103,-2.23868 6.50766,-2.61093 4.04984,-0.58737 4.85476,-0.39756 6.14879,1.44993 1.41368,2.01831 1.6432,2.046 4.54049,0.54776 3.81615,-1.97341 5.15087,-1.99362 5.15087,-0.078 0,0.825 0.37914,1.5 0.84253,1.5 0.46339,0 1.70089,1.6875 2.75,3.75 1.04911,2.0625 2.88732,4.79121 4.08491,6.0638 1.19759,1.2726 3.30846,5.24041 4.69083,8.81738 1.38236,3.57696 5.18135,10.63575 8.4422,15.68619 7.19342,11.14124 10.18953,16.92537 10.18953,19.67131 0,1.13759 1.34999,4.74268 2.99999,8.0113 1.64999,3.26862 4.10577,8.44331 5.45728,11.49932 l 2.4573,5.55638 -6.50238,8.52214 C 1.8575,600.4899 -0.0547,603.72153 -0.05922,606.95086 c -0.002,1.46752 -0.27372,3.37178 -0.6037,4.23169 -0.91845,2.39345 -3.5903,0.54635 -14.55252,-10.06041 z m 56.61073,-8.51011 c -6.40469,-9.90063 -11.45825,-20.31525 -11.45825,-23.61369 0,-2.19368 1.24472,-3.90885 5.50745,-7.58902 8.22223,-7.09857 8.94603,-9.00878 6.57015,-17.33973 -1.06455,-3.73282 -2.00775,-6.33694 -2.09599,-5.78694 -0.0883,0.55 -0.78653,-1.25 -1.55174,-4 -1.96995,-7.07956 -1.84303,-18.81064 0.24667,-22.79966 0.92209,-1.76019 1.58994,-4.43784 1.48411,-5.95034 -0.16953,-2.42292 0.159,-2.75 2.76219,-2.75 2.76023,0 3.00051,-0.3125 3.65218,-4.75 0.38367,-2.6125 1.07062,-5.65 1.52656,-6.75 1.13312,-2.73377 4.58084,-6.61963 6.12793,-6.90668 2.27909,-0.42288 8.57803,-4.64938 9.1498,-6.13941 0.30686,-0.79965 1.24704,-1.45391 2.08931,-1.45391 0.84226,0 1.53138,-0.68912 1.53138,-1.53138 0,-0.84227 0.675,-1.79041 1.5,-2.10699 0.825,-0.31659 1.5,-1.1868 1.5,-1.93382 0,-0.74702 1.28401,-2.83638 2.85335,-4.64301 4.20215,-4.83754 5.10248,-7.018 5.77613,-13.9887 0.33464,-3.46286 1.21122,-7.26424 1.94795,-8.44753 1.96693,-3.15916 9.46658,-5.71643 14.95141,-5.09821 5.57606,0.6285 8.24792,2.89093 9.019,7.63693 1.29499,7.97071 1.66373,9.11271 2.94241,9.11271 1.71911,0 5.23801,7.31886 6.07721,12.63981 0.52251,3.31297 0.27282,4.51991 -1.25016,6.04289 -1.0467,1.0467 -2.52564,3.40607 -3.28654,5.24305 -2.01334,4.86062 -5.34096,8.43743 -11.28332,12.12825 -5.01671,3.1159 -13.60934,11.20784 -13.87244,13.06409 -0.26138,1.84411 -0.53889,2.51691 -3.04485,7.38191 -2.39426,4.64815 -5.73879,17.09364 -7.36283,27.39815 -0.38125,2.41898 -1.31736,5.89203 -2.08025,7.71788 -0.76289,1.82585 -1.38707,5.24685 -1.38707,7.60222 0,8.22221 -2.71834,17.52641 -8.15301,27.90571 -6.00462,11.46779 -11.62139,18.28358 -14.23931,17.27899 -0.9146,-0.35097 -3.68185,-3.75907 -6.14943,-7.57357 z m 27.51194,3.22631 c 0.57231,-1.06937 1.49337,-2.22415 2.0468,-2.56619 0.55344,-0.34204 2.57043,-3.0671 4.48221,-6.0557 1.91177,-2.98859 4.09586,-5.4338 4.85352,-5.4338 1.64705,0 6.64728,3.77707 6.64728,5.02121 0,1.10648 -15.95514,10.97879 -17.74338,10.97879 -1.00444,0 -1.07406,-0.4726 -0.28643,-1.94431 z m 21.25991,-18.9035 c -6.70769,-4.55987 -7.85067,-8.23224 -3.83228,-12.31308 3.0501,-3.0975 3.7738,-8.53802 2.55848,-19.23369 -0.83283,-7.32939 -0.74523,-9.32214 0.52135,-11.86107 0.83729,-1.6784 1.52235,-4.39647 1.52235,-6.04018 0,-1.6437 0.89877,-6.00644 1.99727,-9.69499 1.69069,-5.67704 2.94084,-7.65884 8.14461,-12.91126 3.38104,-3.41265 7.99477,-7.13155 10.25273,-8.26422 2.25797,-1.13267 5.00539,-2.8285 6.10539,-3.7685 2.97857,-2.54535 15.10599,-9.43244 22.5,-12.77762 3.575,-1.6174 8.3,-4.06174 10.5,-5.43188 6.65429,-4.1442 35.59293,-7.04497 42.37212,-4.24732 1.85467,0.76539 4.55467,1.39202 6,1.39251 3.9449,10e-4 23.7625,5.52968 26.68372,7.44374 5.24366,3.43578 5.22336,3.47267 -12.13697,22.05537 -5.13821,5.5 -11.25368,11.93204 -13.58993,14.29343 -3.30362,3.33916 -4.19766,4.95056 -4.02245,7.25 0.15918,2.08915 -0.22505,2.95657 -1.30966,2.95657 -1.12023,0 -1.37243,0.64746 -0.93347,2.39643 1.10269,4.39347 -6.11941,10.1857 -26.56336,21.3042 -10.175,5.5337 -19.625,10.39853 -21,10.81073 -1.375,0.41221 -4.975,1.97783 -8,3.47918 -3.025,1.50134 -8.425,3.70584 -12,4.8989 -3.575,1.19305 -11.225,4.56942 -17,7.50304 -5.775,2.93362 -11.07145,5.18112 -11.7699,4.99444 -0.69844,-0.18668 -3.84844,-2.09231 -7,-4.23473 z M -70.61399,558.31475 c -2.03158,-4.86228 -1.73049,-5.69946 0.55103,-1.53212 1.99203,3.63857 2.38657,5 1.44897,5 -0.30306,0 -1.20306,-1.56055 -2,-3.46788 z m -15.90053,-4.03212 c -4.13083,-3.05391 -9.08434,-8.07708 -12.72684,-12.9058 l -5.96365,-7.9058 2.82103,-2.25165 c 1.55156,-1.23841 4.39602,-2.74527 6.32102,-3.34859 3.48235,-1.09142 3.53472,-1.06152 10.38591,5.92852 6.59359,6.72722 6.8134,7.1056 5.17776,8.91297 -1.88877,2.08706 -1.58862,3.82362 2.41627,13.97986 2.01687,5.11469 2.02954,5.33269 0.23241,4 -1.0454,-0.77523 -4.94416,-3.65951 -8.66391,-6.40951 z m 107.58774,-3.50925 c -1.34535,-4.17719 -3.74815,-8.8171 -5.94683,-11.48359 -16.90939,-20.50721 -17.7794,-21.81743 -21.23664,-31.98203 -1.57102,-4.61892 -3.30056,-9.21413 -3.84344,-10.21158 -2.2222,-4.08297 -6.10927,-13.65494 -6.10927,-15.04418 0,-0.81892 -2.18581,-3.88057 -4.85735,-6.80366 -4.19511,-4.59012 -5.14036,-6.44168 -6.93322,-13.58072 -1.46897,-5.84935 -1.78874,-8.80254 -1.09374,-10.10116 0.54018,-1.00934 4.67263,-4.22404 9.18323,-7.14378 4.51059,-2.91975 10.66287,-7.41988 13.67173,-10.00031 7.1858,-6.1626 10.6452,-7.14434 20.64057,-5.85761 4.65856,0.59971 10.14087,0.67336 13.38878,0.17988 15.49487,-2.35428 15.34913,-2.35726 20.56771,0.4208 2.70401,1.43945 5.45031,2.61719 6.1029,2.61719 0.6526,0 1.89408,0.70755 2.75886,1.57233 1.82556,1.82556 1.33487,4.87666 -1.75742,10.92767 -1.28187,2.50837 -2.1117,6.23744 -2.2253,10 -0.0996,3.3 -0.76358,7.35 -1.47544,9 -0.71185,1.65 -1.20283,3.39382 -1.09107,3.87516 0.11176,0.48134 -0.4406,1.60634 -1.22747,2.5 -1.93738,2.20031 -8.07684,14.68441 -9.65116,19.62484 -1.91817,6.01947 -5.46442,12.64671 -8.53499,15.95019 -2.34051,2.51805 -2.79712,3.98283 -3.1172,10 -0.20626,3.8774 0.36081,12.76225 1.26016,19.74413 0.89935,6.98187 1.3499,13.831 1.00121,15.22028 -0.56902,2.26716 -5.23406,7.5854 -6.65374,7.5854 -0.30986,0 -1.57925,-3.15416 -2.82087,-7.00925 z m -134.13618,-9.99075 c -0.5887,-1.1 -0.67428,-2 -0.19017,-2 0.48411,0 1.69468,0.9 2.69017,2 1.59753,1.76525 1.61985,2 0.19017,2 -0.89089,0 -2.10147,-0.9 -2.69017,-2 z m 36.53804,-12.10074 c -3.80633,-3.34201 -3.81843,-4.89926 -0.038,-4.89926 2.95512,0 4.08513,-1.56149 1.77228,-2.44901 -1.45191,-0.55715 -1.49305,-0.79651 -0.26709,-1.55419 0.94988,-0.58707 2.0115,-0.38668 3.0815,0.58165 1.45491,1.31668 1.805,1.22965 3.22039,-0.80059 1.39799,-2.00529 1.59429,-2.05701 1.64047,-0.43223 0.0289,1.0151 -0.78193,3.0401 -1.80172,4.5 -1.0198,1.4599 -2.15337,3.89187 -2.51905,5.40437 -0.36569,1.5125 -0.86565,2.75 -1.11104,2.75 -0.24538,0 -2.03535,-1.39533 -3.9777,-3.10074 z m 284.43069,-5.83796 c 3.03043,-5.94015 10.72979,-11.1029 27.75273,-18.60941 3.53372,-1.55824 5.19583,-1.96112 4.27854,-1.03707 -3.42736,3.45264 -33.52486,25.31508 -33.80843,24.55802 -0.16964,-0.45289 0.63008,-2.66309 1.77716,-4.91154 z m -352.95299,0.0367 c -5.79438,-2.20169 -20.27971,-10.5062 -22.05333,-12.64327 -2.10839,-2.54045 0.73841,-4.75818 5.31918,-4.14377 4.54028,0.60898 8.65927,3.35894 18.21841,12.16313 7.52153,6.92752 7.20158,7.92427 -1.48426,4.62391 z m 81.6769,-8.19062 c -1.53842,1.53842 -5.97291,1.40946 -5.4111,-0.15736 0.24651,-0.6875 0.027,-2.06768 -0.48774,-3.06706 -1.07518,-2.08737 1.01458,-5.97483 4.09933,-7.62574 1.46513,-0.78412 2.52845,-0.51343 4.70332,1.19732 1.5456,1.21578 3.5062,2.21837 4.35687,2.22799 1.94767,0.022 1.52325,4.27513 -0.67213,6.73531 -1.19622,1.34051 -1.96815,1.4849 -3.51442,0.65736 -1.40742,-0.75323 -2.29805,-0.7439 -3.07413,0.0322 z m -74.0826,-9.70464 c -4.93551,-2.17991 -6.45631,-3.50092 -9.38495,-8.15209 -4.52531,-7.18694 -6.59994,-9.45819 -12.97509,-14.20482 -2.8875,-2.14989 -5.25,-4.55933 -5.25,-5.3543 0,-0.79497 1.2375,-2.22399 2.75,-3.17559 1.5125,-0.9516 4.02203,-2.76197 5.57673,-4.02305 3.64173,-2.95396 6.16755,-2.8962 9.87793,0.22589 2.83632,2.3866 3.54118,2.50465 13.43415,2.25 l 10.44077,-0.26878 5.27632,5.5 c 2.90197,3.025 6.82157,6.40553 8.71021,7.51228 2.81433,1.64922 3.59908,2.8651 4.34943,6.73897 1.20862,6.23979 -0.28202,9.74754 -4.1441,9.75183 -1.52429,0.002 -5.91876,1.58833 -9.76549,3.52585 -7.87375,3.96587 -9.23133,3.94243 -18.89591,-0.32621 z m 360.38996,-5.76138 c 0,-1.00562 6.31351,-8.44136 7.16736,-8.44136 0.45795,0 0.83264,1.33563 0.83264,2.96806 0,2.20955 -0.70279,3.34933 -2.75,4.45997 -2.82649,1.53339 -5.25,2.00117 -5.25,1.01333 z m -255,-3.44136 c 0,-0.55 0.47656,-1 1.05902,-1 0.58246,0 0.7809,0.45 0.44098,1 -0.33992,0.55 -0.81648,1 -1.05902,1 -0.24254,0 -0.44098,-0.45 -0.44098,-1 z m -59,-2.53518 c 0,-0.80565 0.6199,-1.46482 1.37756,-1.46482 1.84747,0 3.95582,2.65157 3.14784,3.9589 -0.88945,1.43916 -4.5254,-0.56472 -4.5254,-2.49408 z m 327,-2.96482 c 0,-1.31008 0.46651,-2.67029 1.0367,-3.02268 1.45346,-0.89829 8.9633,0.49209 8.9633,1.65947 0,1.18428 -8.10735,4.9149 -9.20574,4.23605 -0.43684,-0.26998 -0.79426,-1.56276 -0.79426,-2.87284 z m -315.65286,-0.96941 c -2.78662,-1.95182 -3.45659,-4.92932 -1.6799,-7.4659 2.71692,-3.87894 12.33276,-2.02959 12.33276,2.37188 0,2.32966 -4.09614,6.56343 -6.35007,6.56343 -1.21271,0 -3.14896,-0.66123 -4.30279,-1.46941 z m -156.46562,-2.28059 c -0.20963,-3.0962 0.26314,-4.70992 1.92369,-6.56627 1.54664,-1.729 1.68645,-1.73183 2.90975,-0.0589 1.61435,2.20775 1.65462,5.60556 0.085,7.17514 -1.7895,1.7895 -4.78275,1.45478 -4.91848,-0.55 z m 475.88379,-4.61981 c -1.87863,-2.88996 -0.89829,-5.2151 6.48467,-15.38019 4.91397,-6.76569 8.85061,-7.00716 15.50002,-0.95072 2.88755,2.63005 2.83322,4.07665 -0.3006,8.00415 -1.40284,1.75811 -2.5773,3.64657 -2.60993,4.19657 -0.0326,0.55 -0.9688,2.27725 -2.08039,3.83834 -1.99295,2.79884 -2.12013,2.82848 -9.14008,2.13019 -3.91545,-0.38948 -7.44961,-1.21673 -7.85369,-1.83834 z m -122.76531,-2.63019 c 0,-0.55 0.5625,-1.00086 1.25,-1.0019 0.90726,-0.001 1.25,-2.46938 1.25,-9.00088 0,-6.08379 -0.37027,-8.9987 -1.14301,-8.9981 -1.90019,0.001 -2.59662,-3.28551 -0.89757,-4.23635 0.84732,-0.47418 1.55489,-1.62729 1.57238,-2.56246 0.0479,-2.56024 2.02976,-4.69724 8.0069,-8.63365 9.83761,-6.47884 16.09684,-3.78824 14.44593,6.20974 -0.42899,2.59798 -0.82603,6.06041 -0.88231,7.6943 -0.0686,1.99205 -1.27637,4.13336 -3.66618,6.5 -4.61634,4.57157 -8.89106,8.0293 -9.92648,8.0293 -0.45124,0 -2.70559,1.575 -5.00966,3.5 -4.52905,3.78391 -5,4.01939 -5,2.5 z m -166.81242,-1.26451 c -0.39799,-2.06658 2.48881,-3.4591 4.01242,-1.93549 1.52361,1.52361 0.13109,4.41041 -1.93549,4.01242 -0.95785,-0.18446 -1.89247,-1.11908 -2.07693,-2.07693 z m 279.03012,-1.58099 c -0.28658,-0.86063 0.19425,-1.221 1.33427,-1 0.98026,0.19002 1.98391,0.95098 2.23033,1.691 0.28658,0.86063 -0.19425,1.221 -1.33427,1 -0.98026,-0.19002 -1.98391,-0.95098 -2.23033,-1.691 z m -429.01496,-5.31355 c -0.42037,-2.21852 3.602,-5.84095 6.48582,-5.84095 1.89295,0 2.31144,0.53416 2.31144,2.95031 0,1.7458 -0.71446,3.37614 -1.75,3.99335 -2.51717,1.50028 -6.67738,0.84932 -7.04726,-1.10271 z m 259.27928,-7.59095 c 0.46773,-5.05573 1.29078,-8.34169 2.36748,-9.45199 0.90778,-0.9361 2.23074,-2.3986 2.93993,-3.25 1.85083,-2.222 3.08063,-1.9139 3.79993,0.95199 0.3451,1.375 1.02867,2.5 1.51905,2.5 2.07298,0 0.54864,3.23384 -4.66553,9.89776 -3.05641,3.90623 -5.80928,7.10224 -6.11748,7.10224 -0.30821,0 -0.23773,-3.4875 0.15662,-7.75 z m -235.2927,3.06766 c -0.19796,-1.39048 0.42958,-2.57852 1.72948,-3.2742 2.81273,-1.50533 7.0812,-0.29055 7.0812,2.01526 0,4.13439 -8.23383,5.31091 -8.81068,1.25894 z m 326.03705,-3.1566 c -0.97289,-0.61743 -0.79578,-1.24076 0.75,-2.63967 1.11299,-1.00725 2.02363,-2.96954 2.02363,-4.36065 0,-6.45934 6.51605,-14.16074 11.98122,-14.16074 3.60171,0 7.75502,5.05834 8.55981,10.42503 0.90368,6.02618 -0.36203,7.41113 -7.55118,8.26258 -2.96418,0.35106 -6.53702,1.23719 -7.93963,1.96918 -2.88111,1.50357 -5.93876,1.70065 -7.82385,0.50427 z m -324.22637,-11.9642 c 0,-2.53129 11.58269,-10.53019 15.24808,-10.53019 3.77692,0 8.2136,4.30333 7.32457,7.10442 -1.019,3.21058 -6.51067,4.9308 -16.32265,5.11291 -5.39877,0.1002 -6.25,-0.12958 -6.25,-1.68714 z m 89.20578,-0.76528 c -2.59569,-1.81809 -2.06404,-3.43158 1.13073,-3.43158 2.44285,0 6.66349,2.56951 6.66349,4.0567 0,1.51501 -5.35154,1.0858 -7.79422,-0.62512 z m 196.36565,-9.00301 c -3.62342,-3.62342 -0.4252,-11.43331 4.67857,-11.42483 3.13224,0.005 8.43687,3.43432 9.24333,5.97525 0.75192,2.36909 -0.83601,4.80377 -3.95861,6.06949 -3.35756,1.36095 -8.28928,1.0541 -9.96329,-0.61991 z m -224.57143,-4.42857 c -3.09587,-3.09587 -2.56682,-5 1.38922,-5 4.12735,0 8.21326,2.98759 7.30892,5.34424 -0.89606,2.33511 -6.22989,2.12401 -8.69814,-0.34424 z m 245.5,-12.53028 c 0,-2.90131 3.11553,-2.9451 5.97663,-0.084 3.70792,3.70792 3.19208,4.68092 -1.72663,3.25682 -3.11893,-0.90301 -4.25,-1.74741 -4.25,-3.17282 z"
       id="path5849"
       inkscape:export-xdpi="34.104401"
       inkscape:export-ydpi="34.104401"
       inkscape:export-filename="/home/nicholas/Work/heroku/snickertyjip/public/images/savannah1.png" />
    <path
       style="fill:#000000"
       d="M 163.36361,597.92949 C 160.11183,595.59473 159.9956,589.67454 163.50601,587.52094 165.95117,586.86319 166.62688,592.46365 164.89616,591.24458 164.063,586.70606 160.60766,593.57482 163.50721,594.8938 166.9707,597.37226 168.08111,591.5538 167.98617,589.11544 167.90407,582.16515 164.33505,575.79031 164.20802,568.82809 164.10225,566.3294 164.63988,562.24724 161.40767,561.68026 158.56863,561.79176 155.90818,563.1779 153.20716,563.73277 149.5362,562.60103 145.5663,560.7945 141.79172,562.60374 138.9673,563.60537 136.54779,566.18547 133.36636,565.82813 131.60128,563.33011 136.7706,561.19307 137.00901,558.62652 137.27184,555.45435 137.91515,551.8581 140.38786,549.63793 142.18804,547.50928 146.7503,552.3775 146.17164,548.4902 144.42786,545.50156 147.51121,542.30166 148.43216,539.46796 148.82963,536.6253 154.04973,536.8787 155.56411,538.42923 153.36938,539.78436 149.77607,538.33444 148.27005,541.17097 147.28635,542.50082 145.62609,545.79526 148.48291,544.64983 147.10035,546.09829 148.31067,550.4874 149.79691,547.72213 152.30908,546.46843 154.06031,543.40204 157.35332,543.08001 161.83344,541.93268 156.96046,537.95519 154.88117,536.95728 151.46569,535.47993 152.39368,531.7941 153.28767,529.02348 153.23955,525.14007 148.64334,529.81222 146.89131,528.17347 146.18407,524.54717 151.05108,525.22797 152.91592,524.8326 150.78149,523.12969 145.98556,524.63594 146.03305,527.62487 146.97946,528.75295 149.02514,534.0059 146.11895,532.03933 144.49396,529.92869 142.96015,526.31893 145.4299,524.22985 147.90479,522.66088 150.74409,520.66804 153.76902,520.802 156.50075,521.99069 155.41732,527.05982 159.2871,526.2501 163.85279,527.71742 166.82201,532.11904 168.50344,536.40449 169.9907,540.15365 168.59495,544.13998 168.53061,548.00317 168.08253,553.29121 166.04753,558.33658 166.10976,563.68962 165.71514,571.99793 168.54804,579.94361 169.63223,588.08411 169.92279,591.49702 169.22642,595.42215 166.63869,597.85309 165.66179,598.57748 164.34592,598.75241 163.36361,597.92949 z M 145.88182,558.05986 C 149.22375,554.84479 141.53894,556.83351 143.78978,559.1524 144.61516,559.18765 145.28923,558.54519 145.88182,558.05986 z M 147.50833,535.72986 C 147.92468,533.02406 152.97865,536.91752 149.08647,536.49217 148.52884,536.47323 147.1509,536.80412 147.50833,535.72986 z M 148.92907,529.48776 C 148.05163,528.18456 150.73668,530.59185 148.92907,529.48776 z M 150.78571,529.3021 C 152.34286,527.59746 151.45602,530.334 150.56587,529.69711 L 150.78571,529.3021 z"
       id="path4365" />
  </g>
</svg>
