<?xml version="1.0" encoding="UTF-8" standalone="no"?>
<!-- Created with Inkscape (http://www.inkscape.org/) -->

<svg
   xmlns:dc="http://purl.org/dc/elements/1.1/"
   xmlns:cc="http://creativecommons.org/ns#"
   xmlns:rdf="http://www.w3.org/1999/02/22-rdf-syntax-ns#"
   xmlns:svg="http://www.w3.org/2000/svg"
   xmlns="http://www.w3.org/2000/svg"
   xmlns:sodipodi="http://sodipodi.sourceforge.net/DTD/sodipodi-0.dtd"
   xmlns:inkscape="http://www.inkscape.org/namespaces/inkscape"
   width="300"
   height="114"
   id="svg3074"
   version="1.1"
   inkscape:version="0.47 r22583"
   sodipodi:docname="savannah.svg">
  <defs
     id="defs3076">
    <inkscape:perspective
       sodipodi:type="inkscape:persp3d"
       inkscape:vp_x="0 : 526.18109 : 1"
       inkscape:vp_y="0 : 1000 : 0"
       inkscape:vp_z="744.09448 : 526.18109 : 1"
       inkscape:persp3d-origin="372.04724 : 350.78739 : 1"
       id="perspective3082" />
    <inkscape:perspective
       id="perspective3063"
       inkscape:persp3d-origin="0.5 : 0.33333333 : 1"
       inkscape:vp_z="1 : 0.5 : 1"
       inkscape:vp_y="0 : 1000 : 0"
       inkscape:vp_x="0 : 0.5 : 1"
       sodipodi:type="inkscape:persp3d" />
    <inkscape:perspective
       id="perspective3302"
       inkscape:persp3d-origin="0.5 : 0.33333333 : 1"
       inkscape:vp_z="1 : 0.5 : 1"
       inkscape:vp_y="0 : 1000 : 0"
       inkscape:vp_x="0 : 0.5 : 1"
       sodipodi:type="inkscape:persp3d" />
    <inkscape:perspective
       id="perspective4359"
       inkscape:persp3d-origin="0.5 : 0.33333333 : 1"
       inkscape:vp_z="1 : 0.5 : 1"
       inkscape:vp_y="0 : 1000 : 0"
       inkscape:vp_x="0 : 0.5 : 1"
       sodipodi:type="inkscape:persp3d" />
    <inkscape:perspective
       id="perspective4441"
       inkscape:persp3d-origin="0.5 : 0.33333333 : 1"
       inkscape:vp_z="1 : 0.5 : 1"
       inkscape:vp_y="0 : 1000 : 0"
       inkscape:vp_x="0 : 0.5 : 1"
       sodipodi:type="inkscape:persp3d" />
    <inkscape:perspective
       id="perspective4463"
       inkscape:persp3d-origin="0.5 : 0.33333333 : 1"
       inkscape:vp_z="1 : 0.5 : 1"
       inkscape:vp_y="0 : 1000 : 0"
       inkscape:vp_x="0 : 0.5 : 1"
       sodipodi:type="inkscape:persp3d" />
    <inkscape:perspective
       id="perspective4485"
       inkscape:persp3d-origin="0.5 : 0.33333333 : 1"
       inkscape:vp_z="1 : 0.5 : 1"
       inkscape:vp_y="0 : 1000 : 0"
       inkscape:vp_x="0 : 0.5 : 1"
       sodipodi:type="inkscape:persp3d" />
    <inkscape:perspective
       id="perspective4516"
       inkscape:persp3d-origin="0.5 : 0.33333333 : 1"
       inkscape:vp_z="1 : 0.5 : 1"
       inkscape:vp_y="0 : 1000 : 0"
       inkscape:vp_x="0 : 0.5 : 1"
       sodipodi:type="inkscape:persp3d" />
    <inkscape:perspective
       id="perspective4538"
       inkscape:persp3d-origin="0.5 : 0.33333333 : 1"
       inkscape:vp_z="1 : 0.5 : 1"
       inkscape:vp_y="0 : 1000 : 0"
       inkscape:vp_x="0 : 0.5 : 1"
       sodipodi:type="inkscape:persp3d" />
    <inkscape:perspective
       id="perspective2848"
       inkscape:persp3d-origin="0.5 : 0.33333333 : 1"
       inkscape:vp_z="1 : 0.5 : 1"
       inkscape:vp_y="0 : 1000 : 0"
       inkscape:vp_x="0 : 0.5 : 1"
       sodipodi:type="inkscape:persp3d" />
    <inkscape:perspective
       id="perspective2870"
       inkscape:persp3d-origin="0.5 : 0.33333333 : 1"
       inkscape:vp_z="1 : 0.5 : 1"
       inkscape:vp_y="0 : 1000 : 0"
       inkscape:vp_x="0 : 0.5 : 1"
       sodipodi:type="inkscape:persp3d" />
    <inkscape:perspective
       id="perspective2892"
       inkscape:persp3d-origin="0.5 : 0.33333333 : 1"
       inkscape:vp_z="1 : 0.5 : 1"
       inkscape:vp_y="0 : 1000 : 0"
       inkscape:vp_x="0 : 0.5 : 1"
       sodipodi:type="inkscape:persp3d" />
    <inkscape:perspective
       id="perspective2914"
       inkscape:persp3d-origin="0.5 : 0.33333333 : 1"
       inkscape:vp_z="1 : 0.5 : 1"
       inkscape:vp_y="0 : 1000 : 0"
       inkscape:vp_x="0 : 0.5 : 1"
       sodipodi:type="inkscape:persp3d" />
    <inkscape:perspective
       id="perspective2936"
       inkscape:persp3d-origin="0.5 : 0.33333333 : 1"
       inkscape:vp_z="1 : 0.5 : 1"
       inkscape:vp_y="0 : 1000 : 0"
       inkscape:vp_x="0 : 0.5 : 1"
       sodipodi:type="inkscape:persp3d" />
    <inkscape:perspective
       id="perspective2958"
       inkscape:persp3d-origin="0.5 : 0.33333333 : 1"
       inkscape:vp_z="1 : 0.5 : 1"
       inkscape:vp_y="0 : 1000 : 0"
       inkscape:vp_x="0 : 0.5 : 1"
       sodipodi:type="inkscape:persp3d" />
    <inkscape:perspective
       id="perspective2980"
       inkscape:persp3d-origin="0.5 : 0.33333333 : 1"
       inkscape:vp_z="1 : 0.5 : 1"
       inkscape:vp_y="0 : 1000 : 0"
       inkscape:vp_x="0 : 0.5 : 1"
       sodipodi:type="inkscape:persp3d" />
    <inkscape:perspective
       id="perspective3002"
       inkscape:persp3d-origin="0.5 : 0.33333333 : 1"
       inkscape:vp_z="1 : 0.5 : 1"
       inkscape:vp_y="0 : 1000 : 0"
       inkscape:vp_x="0 : 0.5 : 1"
       sodipodi:type="inkscape:persp3d" />
    <inkscape:perspective
       id="perspective3024"
       inkscape:persp3d-origin="0.5 : 0.33333333 : 1"
       inkscape:vp_z="1 : 0.5 : 1"
       inkscape:vp_y="0 : 1000 : 0"
       inkscape:vp_x="0 : 0.5 : 1"
       sodipodi:type="inkscape:persp3d" />
    <inkscape:perspective
       id="perspective3046"
       inkscape:persp3d-origin="0.5 : 0.33333333 : 1"
       inkscape:vp_z="1 : 0.5 : 1"
       inkscape:vp_y="0 : 1000 : 0"
       inkscape:vp_x="0 : 0.5 : 1"
       sodipodi:type="inkscape:persp3d" />
    <inkscape:perspective
       id="perspective4499"
       inkscape:persp3d-origin="0.5 : 0.33333333 : 1"
       inkscape:vp_z="1 : 0.5 : 1"
       inkscape:vp_y="0 : 1000 : 0"
       inkscape:vp_x="0 : 0.5 : 1"
       sodipodi:type="inkscape:persp3d" />
    <inkscape:perspective
       id="perspective2894"
       inkscape:persp3d-origin="0.5 : 0.33333333 : 1"
       inkscape:vp_z="1 : 0.5 : 1"
       inkscape:vp_y="0 : 1000 : 0"
       inkscape:vp_x="0 : 0.5 : 1"
       sodipodi:type="inkscape:persp3d" />
    <inkscape:perspective
       id="perspective2917"
       inkscape:persp3d-origin="0.5 : 0.33333333 : 1"
       inkscape:vp_z="1 : 0.5 : 1"
       inkscape:vp_y="0 : 1000 : 0"
       inkscape:vp_x="0 : 0.5 : 1"
       sodipodi:type="inkscape:persp3d" />
    <inkscape:perspective
       id="perspective2956"
       inkscape:persp3d-origin="0.5 : 0.33333333 : 1"
       inkscape:vp_z="1 : 0.5 : 1"
       inkscape:vp_y="0 : 1000 : 0"
       inkscape:vp_x="0 : 0.5 : 1"
       sodipodi:type="inkscape:persp3d" />
  </defs>
  <sodipodi:namedview
     id="base"
     pagecolor="#ffffff"
     bordercolor="#666666"
     borderopacity="1.0"
     inkscape:pageopacity="0.0"
     inkscape:pageshadow="2"
     inkscape:zoom="22.4"
     inkscape:cx="69.017461"
     inkscape:cy="39.585651"
     inkscape:document-units="px"
     inkscape:current-layer="layer1"
     showgrid="false"
     inkscape:window-width="1280"
     inkscape:window-height="772"
     inkscape:window-x="0"
     inkscape:window-y="1"
     inkscape:window-maximized="1"
     showguides="true"
     inkscape:guide-bbox="true">
    <sodipodi:guide
       orientation="0,1"
       position="751.55349,864.69058"
       id="guide2858" />
  </sodipodi:namedview>
  <metadata
     id="metadata3079">
    <rdf:RDF>
      <cc:Work
         rdf:about="">
        <dc:format>image/svg+xml</dc:format>
        <dc:type
           rdf:resource="http://purl.org/dc/dcmitype/StillImage" />
        <dc:title />
      </cc:Work>
    </rdf:RDF>
  </metadata>
  <g
     inkscape:label="Layer 1"
     inkscape:groupmode="layer"
     id="layer1"
     transform="translate(-49.06296,-568.78264)">
    <path
       transform="translate(49.06296,568.78264)"
       style="fill:#94e5cb;fill-opacity:1;stroke:none"
       d="M -3.2142856,-3.5 305.35716,-3.5 305.35716,118.64286 -3.2142856,118.64286 -3.2142856,-3.5 z"
       id="background"
       inkscape:label="#rect5113" />
    <path
       style="fill:#ff6600;fill-opacity:1;stroke:none"
       d="M 181.20582,689.74692 C 181.20582,726.13854 151.70458,755.63978 115.31296,755.63978 78.921343,755.63978 49.420103,726.13854 49.420103,689.74692 49.420103,653.3553 78.921343,623.85406 115.31296,623.85406 151.70458,623.85406 181.20582,653.3553 181.20582,689.74692 z"
       id="sun"
       inkscape:label="#path5108" />
    <path
       id="cloud-2"
       d="M 374.69115,644.32675 C 369.73934,644.15725 367.8836,643.94311 365.02781,643.21162 362.62089,642.5951 360.78622,641.72542 359.64228,640.65871 358.77763,639.85245 358.7764,639.8492 359.1721,639.41133 359.63122,638.90325 361.07787,638.13871 362.85347,637.46574 366.37411,636.13137 369.20359,634.40618 370.21137,632.97946 370.46367,632.62228 370.85729,632.17082 371.08609,631.97623 371.79414,631.37402 374.47626,630.34921 375.90365,630.13549 376.65128,630.02355 377.98155,629.70888 378.85982,629.43622 381.04704,628.75719 384.63448,628.32011 388.12661,628.30717 391.10637,628.29613 393.86941,627.94492 394.29067,627.52365 394.46603,627.3483 394.46288,627.28926 394.27817,627.28926 394.14238,627.28926 394.03127,627.20576 394.03127,627.10372 394.03127,627.00167 394.58695,626.85368 395.26612,626.77485 395.94528,626.69603 396.55175,626.54935 396.61383,626.44891 396.67591,626.34847 396.49535,625.87151 396.2126,625.38899 395.14342,623.56446 395.38088,621.52504 396.83703,620.02585 397.71953,619.11728 397.71903,619.11741 401.10795,618.85408 404.46651,618.59312 406.57544,618.59231 407.67371,618.85157 408.14817,618.96357 409.68199,619.13975 411.08219,619.24308 413.60421,619.42919 413.64813,619.44123 415.78093,620.5311 417.07387,621.19179 418.4814,622.11356 419.30462,622.8387 420.05854,623.50281 421.46236,624.57935 422.42422,625.23103 423.38608,625.88271 424.57165,626.84387 425.05881,627.36694 425.82985,628.19482 426.05224,628.31799 426.77599,628.31799 428.7015,628.31799 431.2563,629.41155 433.31193,631.11565 434.32979,631.95945 435.23742,632.45312 437.27206,633.26959 439.75858,634.2674 440.4481,634.66243 442.16138,636.07068 442.82234,636.61398 442.97097,636.64708 444.50852,636.59353 446.26022,636.53251 447.63402,636.86247 448.54579,637.56319 448.94088,637.86683 449.04107,638.11418 449.00227,638.69024 448.96957,639.17575 449.04277,639.4311 449.21619,639.43651 449.36119,639.44104 449.21586,639.58778 448.89323,639.7626 448.38204,640.03957 448.32336,640.16415 448.43674,640.73164 448.75114,642.30535 448.92313,642.17944 446.08501,642.45365 441.849,642.86297 435.24624,643.01752 433.91757,642.73847 432.57131,642.45573 432.19793,642.10742 432.02394,640.97204 431.84887,639.82957 431.45326,639.60638 429.72938,639.67746 L 428.28798,639.7369 428.33373,640.35788 C 428.36252,640.74864 428.20996,641.18484 427.92224,641.53442 L 427.465,642.08998 421.60124,642.11255 C 416.23267,642.13323 415.62169,642.17197 414.36646,642.57118 413.01654,643.00049 412.95955,643.00186 410.66303,642.6608 409.38021,642.47028 406.98813,642.26221 405.3473,642.19843 403.70648,642.13462 401.73048,641.9361 400.95619,641.75727 399.09657,641.32773 397.68387,641.48508 396.27147,642.27908 395.66174,642.62185 394.14443,643.19076 392.89967,643.54335 390.69764,644.16709 390.53914,644.1827 387.03591,644.121 383.1965,644.05335 380.46688,644.13717 379.62905,644.34843 379.34615,644.41978 377.1241,644.41001 374.69115,644.32675 z"
       style="fill:#d1d7da"
       inkscape:label="#path4487" />
    <path
       id="cloud-0"
       style="fill:#b8c3cc"
       d="M 373.66242,644.38165 C 373.49268,644.28275 372.42794,644.15197 371.29634,644.09107 366.58549,643.83751 362.40883,642.672 360.23571,641.0046 359.69722,640.5914 359.16486,640.25336 359.05267,640.25336 358.14886,640.25336 360.54096,638.83362 363.04138,637.88603 366.74893,636.48096 369.53896,634.73817 370.48831,633.23429 371.15655,632.17574 373.43185,631.08049 375.75739,630.69795 376.69862,630.54313 377.72296,630.31754 378.0337,630.19666 378.67152,629.94852 381.62609,629.20801 382.09801,629.178 382.26775,629.16721 384.5361,629.0699 387.13878,628.96175 389.74147,628.8536 392.24128,628.65715 392.69393,628.5252 393.14657,628.39325 393.87394,628.18246 394.31032,628.05679 394.7467,627.93112 395.15009,627.70748 395.20675,627.55982 395.26341,627.41216 395.49113,627.29135 395.71278,627.29135 396.28487,627.29135 396.91172,626.91675 396.91172,626.57489 396.91172,626.41511 396.68025,625.84907 396.39735,625.317 395.55316,623.72929 395.71916,621.97089 396.84009,620.62743 397.52288,619.80908 398.09036,619.48943 398.87659,619.48029 399.22173,619.47628 399.60154,619.37558 399.72061,619.25651 400.03231,618.94481 407.65711,618.88574 408.03935,619.19206 408.44794,619.51951 409.27785,619.67107 411.7442,619.86867 413.79363,620.03287 413.97343,620.0871 415.92363,621.12933 417.04446,621.72832 418.52583,622.72358 419.21557,623.34101 419.9053,623.95844 421.25661,624.99416 422.21848,625.6426 423.18034,626.29105 424.44577,627.29763 425.03055,627.87946 426.0218,628.8657 426.16239,628.93732 427.10724,628.93732 428.85284,628.93732 431.31341,629.95528 432.91727,631.34098 434.23373,632.47838 434.69073,632.73664 437.05076,633.67688 439.42657,634.62339 440.29023,635.03797 440.73562,635.4457 441.80682,636.42633 442.89365,637.16918 443.27547,637.18169 443.51938,637.18968 444.41333,637.18599 445.26203,637.17348 446.49407,637.15532 446.99176,637.2457 447.73098,637.62187 448.58523,638.05658 448.66173,638.16064 448.7201,638.96743 448.75863,639.49992 448.6957,639.84186 448.55916,639.84186 448.18689,639.84186 447.97748,640.72034 448.19856,641.35455 448.42593,642.00676 448.12233,642.38497 447.49203,642.23465 447.30403,642.1898 446.37817,642.23985 445.43457,642.34585 442.25982,642.70251 435.42858,642.86839 433.90119,642.62592 432.77137,642.44655 432.65934,642.33367 432.30242,641.0149 431.96533,639.76942 431.4444,639.48607 429.57042,639.52892 427.9761,639.56538 427.59269,639.79549 427.92201,640.51825 428.09409,640.89592 428.06842,641.09393 427.80327,641.43436 427.47609,641.85441 427.26927,641.87173 421.49837,641.96214 416.08286,642.04699 415.41217,642.09637 414.23734,642.49687 412.97746,642.92637 412.8958,642.92931 411.1757,642.60699 409.36515,642.26771 409.02643,642.23718 404.42145,641.998 402.95036,641.92158 401.19488,641.72166 400.52037,641.55371 398.93581,641.15917 397.77034,641.33622 396.19161,642.21132 395.51265,642.58767 394.06691,643.13621 392.97887,643.4303 391.30809,643.88189 390.62053,643.95923 388.55533,643.92786 384.05539,643.85947 381.82669,643.95935 381.23191,644.25606 380.904,644.41965 380.61162,644.46002 380.54426,644.35103 380.47383,644.23707 380.27325,644.24372 380.04159,644.36772 379.56998,644.62011 374.09215,644.63208 373.66242,644.38165 z M 394.60845,641.03562 C 396.48495,639.63836 397.60148,639.32749 400.74354,639.32749 402.50907,639.32749 402.70755,639.37284 404.07895,640.08962 405.52769,640.84681 405.54951,640.85103 407.44824,640.73836 408.49935,640.676 410.05374,640.60187 410.90245,640.57366 411.75115,640.54543 413.13993,640.45361 413.98864,640.36958 414.97858,640.27156 415.86362,640.30152 416.45759,640.45311 417.65332,640.7583 424.74808,640.97223 425.20439,640.71686 425.49365,640.55498 425.38432,640.40711 424.51206,639.78045 423.54344,639.08457 423.47212,638.97226 423.41314,638.05027 423.35888,637.20186 423.29266,637.07137 422.93859,637.11506 422.71227,637.14299 421.92529,637.22029 421.18975,637.28684 419.02835,637.48239 418.66911,637.53476 417.63481,637.80514 416.76042,638.03371 416.51013,638.01441 415.3716,637.6306 413.36029,636.95256 413.00705,636.88425 410.458,636.68045 409.70433,636.62019 408.76084,636.43432 408.36135,636.2674 407.76206,636.017 407.61018,635.82623 407.49306,635.17675 407.30276,634.1215 407.06946,633.87522 406.26011,633.87522 405.27182,633.87522 405.20243,634.22167 406.01947,635.07683 406.8724,635.96956 407.27053,636.68404 407.12556,637.06181 406.98183,637.43637 405.07841,637.96005 403.70134,638.0039 402.29369,638.04873 400.24887,637.86908 398.76343,637.57008 398.14105,637.4448 397.35407,637.29744 397.01459,637.2426 396.67511,637.18776 395.84184,637.05188 395.16288,636.94063 392.83576,636.55934 392.48513,636.52489 390.87659,636.51951 388.82447,636.51266 388.06464,636.80239 388.06464,637.59175 388.06464,638.03887 388.32146,638.39389 389.18283,639.13755 390.06363,639.89797 390.32944,640.27109 390.43485,640.89504 390.55666,641.61605 390.6456,641.70691 391.42555,641.90718 391.89684,642.0282 392.37502,642.15603 392.48818,642.19121 392.7804,642.28209 393.35508,641.96889 394.60845,641.03562 z M 441.32852,641.28209 444.76821,641.28209 445.02885,640.02018 C 445.18361,639.27087 445.21415,638.68295 445.10401,638.57281 445.002,638.4708 444.27828,638.34851 443.49575,638.30106 440.55913,638.12297 438.67095,637.75843 438.28912,637.29582 438.18401,637.16848 438.01512,636.74023 437.9138,636.34417 437.75913,635.73952 437.53348,635.52354 436.50647,634.99713 434.98445,634.217 432.68692,632.63804 431.51371,631.56591 430.21433,630.37847 428.61558,629.72868 426.57053,629.55681 L 424.85308,629.41247 423.74178,628.1649 C 422.99874,627.33075 422.12332,626.63899 421.10003,626.07737 420.25828,625.61539 419.43404,625.0439 419.26838,624.80739 418.79756,624.1352 416.61288,622.44783 415.88476,622.19401 415.52329,622.068 414.86736,621.67545 414.42714,621.32169 413.67093,620.71397 413.49194,620.66894 411.18443,620.50588 409.53264,620.38915 408.39002,620.19406 407.65433,619.90315 406.4404,619.42312 405.58947,619.36621 404.52296,619.69372 404.12765,619.81512 402.78577,619.93952 401.541,619.97017 400.29624,620.00082 399.01189,620.13497 398.68689,620.26827 398.12164,620.50011 398.09992,620.55818 398.18675,621.6052 398.3157,623.16024 398.822,623.73966 401.16435,625.01285 404.73896,626.95583 409.14369,629.08684 411.4424,629.98538 412.67309,630.46644 414.58968,631.40627 415.70148,632.07391 418.05642,633.48803 421.1398,634.76984 423.04146,635.12525 425.50928,635.58647 425.60961,635.62327 425.67811,636.09213 425.83032,637.13405 427.83677,638.01836 430.24257,638.10385 431.95065,638.16455 433.96314,638.41787 434.728,638.66845 435.41391,638.89316 435.5069,639.01366 435.70118,639.92941 435.8904,640.82134 436.00084,640.97258 436.6284,641.19921 437.02022,641.34072 437.46411,641.41724 437.61482,641.36928 437.76552,641.32132 439.43669,641.28209 441.32852,641.28209 z M 368.80149,639.8517 C 369.08487,639.74395 369.41462,639.47291 369.53425,639.24937 369.71014,638.92072 369.64998,638.72197 369.21985,638.2108 368.44313,637.28771 367.1082,637.31717 365.25144,638.29838 364.50237,638.69423 363.61173,639.12674 363.27225,639.25952 362.68631,639.48868 362.73315,639.50953 364.19608,639.67072 365.04367,639.76409 365.83065,639.8798 365.94492,639.9278 366.34762,640.09703 368.29253,640.0452 368.80149,639.8517 z M 375.29641,637.78783 C 375.68438,637.67656 376.31384,637.28307 376.69521,636.91341 L 377.3886,636.2413 380.61772,636.20747 C 383.99887,636.17205 385.17666,636.08472 387.01256,635.73332 387.62209,635.61664 388.82571,635.52004 389.68725,635.51863 391.63494,635.51545 394.7389,634.70671 395.39771,634.03076 395.8969,633.51858 396.09432,631.85932 395.80235,630.62981 395.67897,630.11028 395.74227,629.78694 396.07913,629.21601 396.47149,628.55102 396.47848,628.49016 396.14799,628.61716 394.92147,629.08846 390.90243,629.67084 389.71061,629.54997 388.26825,629.40369 384.40417,629.58531 384.01973,629.81745 383.92464,629.87487 383.29133,629.97603 382.61237,630.04227 381.93341,630.1085 380.6835,630.35146 379.8348,630.58219 378.9861,630.81292 377.78771,631.10073 377.17171,631.22177 374.37173,631.77197 372.94683,632.71479 373.17688,633.86505 373.30092,634.48525 373.15074,634.6829 372.06789,635.32462 371.69341,635.54654 371.39921,635.89004 371.39921,636.10536 371.39921,636.61435 372.26982,637.53558 372.87334,637.66519 374.58076,638.03187 374.46578,638.02605 375.29641,637.78783 z M 401.48632,634.09269 C 402.04436,633.58981 402.11963,633.42417 401.93044,633.1154 401.80515,632.91092 401.55271,632.7141 401.36945,632.67802 400.89082,632.58379 399.99791,633.55803 399.99791,634.17449 399.99791,634.89873 400.63045,634.86397 401.48632,634.09269 z"
       inkscape:label="#path4485" />
    <path
       id="cloud-1"
       d="M 375.36923,644.4209 C 376.25139,644.38225 377.64018,644.38249 378.45542,644.42144 379.27066,644.46039 378.54889,644.49201 376.85148,644.49172 375.15408,644.49143 374.48706,644.45956 375.36923,644.4209 z M 373.43718,644.07443 C 373.38873,644.026 372.4243,643.9424 371.29399,643.88866 368.79816,643.77003 365.44099,643.15985 363.42314,642.45811 361.77945,641.88648 359.97617,640.82226 359.66451,640.23992 359.41073,639.76574 359.77569,639.49743 361.89966,638.59676 366.27715,636.74047 367.23888,636.26426 368.50337,635.32686 369.25765,634.76769 370.26134,633.85176 370.7338,633.29145 371.77648,632.0549 373.84877,631.10568 375.92563,630.91333 L 377.26298,630.78947 376.23425,631.0819 C 374.64281,631.53427 374.20533,631.73374 373.49651,632.33018 372.94459,632.79459 372.83944,633.02509 372.83944,633.77051 372.83944,634.56659 372.77746,634.67956 372.23743,634.86781 371.90633,634.98323 371.48367,635.30928 371.29819,635.59237 370.98905,636.06417 370.98814,636.15967 371.28723,636.73805 371.82811,637.784 372.51312,638.09301 374.29086,638.09301 375.80695,638.09301 375.89309,638.06639 376.68248,637.35372 L 377.50137,636.61443 381.49709,636.48629 C 383.69474,636.41581 386.11344,636.25585 386.87198,636.13082 387.63053,636.00579 388.51009,635.93321 388.82657,635.96952 L 389.40199,636.03555 388.64316,636.39923 C 387.2752,637.05483 387.41618,638.25078 389.00146,639.43857 389.50216,639.81374 389.95053,640.26626 389.99784,640.44421 390.04515,640.62213 390.13995,641.02009 390.20852,641.32854 390.31314,641.79915 390.51717,641.94286 391.47682,642.22183 392.83547,642.6168 393.31788,642.47712 394.89171,641.2331 396.44306,640.00681 397.25205,639.78234 400.20365,639.75917 402.18977,639.74358 402.91605,639.81357 403.39272,640.0665 405.6825,641.28145 405.49428,641.24042 407.91913,641.05288 411.39569,640.78404 416.06597,640.7628 419.08943,641.00215 420.59353,641.12121 422.74614,641.17423 423.87303,641.11998 425.68284,641.03282 425.9219,640.97752 425.9219,640.646 425.9219,640.41847 425.55553,640.05598 424.99135,639.72535 423.91474,639.09441 423.6587,638.70667 423.6587,637.70719 423.6587,637.31037 423.57597,636.93457 423.47485,636.87207 423.21164,636.7094 419.031,637.13887 417.70785,637.46451 416.66424,637.72135 416.5069,637.70707 415.27617,637.24383 414.48189,636.94486 412.93339,636.62841 411.36959,636.44548 408.58365,636.11959 407.81626,635.81386 407.81626,635.02983 407.81626,634.24102 407.06339,633.46373 406.29938,633.46373 404.92511,633.46373 404.80568,634.21644 405.97433,635.51235 406.42916,636.0167 406.77378,636.57222 406.74016,636.74682 406.63698,637.28269 405.17136,637.6413 403.0841,637.6414 401.8097,637.64145 399.84073,637.41547 397.42608,636.99201 395.3892,636.63479 393.02964,636.27346 392.18262,636.18904 L 390.64259,636.03555 392.38837,635.56153 C 395.99207,634.58302 396.4577,634.06312 396.22249,631.28057 396.10507,629.8915 396.13283,629.73947 396.6067,629.17631 396.88762,628.84245 397.11746,628.45642 397.11746,628.31846 397.11746,628.05106 397.02362,628.06242 394.55885,628.6283 393.774,628.80849 392.94073,628.92214 392.70714,628.88086 392.36189,628.81984 392.39791,628.7777 392.89967,628.65564 394.24762,628.32772 395.12566,628.01929 395.35009,627.79485 395.4797,627.66525 395.93038,627.44546 396.3516,627.30645 397.2756,627.0015 397.31847,626.66243 396.6031,625.317 395.66568,623.55396 395.98106,621.59233 397.4026,620.34421 397.98381,619.8339 398.33873,619.68366 398.9249,619.69981 L 399.68929,619.72087 399.02188,619.87931 C 397.90066,620.14548 397.67254,620.46083 397.80319,621.56399 398.02111,623.40394 398.49693,623.94321 401.14837,625.35521 403.49319,626.60393 409.29341,629.45941 410.28521,629.85332 412.77394,630.84179 414.48639,631.67524 416.21791,632.74077 417.04796,633.25156 417.78864,633.67004 417.86388,633.67074 417.93912,633.67144 418.2628,633.80872 418.58316,633.97581 419.54339,634.47663 422.6672,635.49316 423.6587,635.62745 425.30153,635.84995 425.51041,635.9272 425.51041,636.31223 425.51041,636.75986 426.18126,637.39661 427.14126,637.86016 427.55192,638.05846 428.84037,638.2874 430.22745,638.40855 432.85287,638.63786 434.86736,638.92823 435.18203,639.1227 435.29433,639.19211 435.38622,639.52728 435.38622,639.86752 435.38622,640.74427 435.68977,641.20419 436.44131,641.46619 437.39453,641.79849 444.73595,641.77295 445.00817,641.43639 445.12258,641.29494 445.28216,640.59816 445.3628,639.88801 445.55251,638.21713 445.37162,637.99039 443.84805,637.98936 442.42605,637.9884 439.29048,637.49486 438.70057,637.17915 438.44979,637.04494 438.26666,636.74461 438.26666,636.46755 438.26666,635.87269 437.52989,634.90395 437.07747,634.90395 436.61948,634.90395 432.80889,632.36539 431.76195,631.36284 431.29627,630.91689 430.463,630.3305 429.91024,630.05973 428.585,629.41057 429.08706,629.41268 430.55631,630.06246 431.18796,630.3418 432.3172,631.0787 433.06573,631.70001 434.12919,632.58273 435.00178,633.06044 437.05746,633.88536 439.58375,634.89913 440.15272,635.22373 441.9984,636.70423 442.88409,637.41468 442.90315,637.41864 445.22018,637.37424 447.25052,637.33534 448.55396,637.91886 448.55396,638.86672 448.55396,639.21548 448.40351,639.66708 448.21963,639.87028 447.90522,640.2177 447.84698,640.63697 447.98217,641.57959 448.03371,641.93897 447.89203,641.98613 446.59938,642.03985 445.80725,642.07277 444.72377,642.20167 444.19163,642.32631 443.65949,642.45095 443.15027,642.51121 443.06003,642.46025 442.96978,642.40929 441.09053,642.42801 438.8839,642.50183 436.21306,642.59121 434.52971,642.55971 433.84837,642.40764 432.84061,642.1827 432.82003,642.16239 432.50837,641.08529 432.31861,640.42949 432.0075,639.86898 431.73153,639.68574 431.18263,639.32129 429.42219,639.21143 428.3234,639.47307 427.5541,639.65624 427.53865,639.67819 427.65691,640.41991 427.7235,640.83751 427.70082,641.297 427.6065,641.44098 427.47621,641.6399 425.99972,641.72129 421.45983,641.77983 415.93622,641.85106 415.39131,641.89091 414.24966,642.30717 413.03196,642.75117 412.98911,642.75261 411.18702,642.41122 410.1818,642.2208 408.52608,642.02596 407.50764,641.97827 403.88035,641.80836 400.70624,641.51795 399.93143,641.28509 398.91728,640.9803 397.50611,641.26908 396.03848,642.08176 395.44374,642.41108 394.12386,642.9212 393.10542,643.21536 391.50628,643.67726 390.88887,643.74719 388.57901,643.72812 383.99436,643.69024 382.24962,643.74659 381.49225,643.95699 380.79111,644.15177 373.61908,644.25635 373.43718,644.07443 z M 369.29308,639.91106 C 370.60768,638.9339 369.53853,637.16716 367.63259,637.16716 366.93235,637.16716 365.20552,637.80869 364.6096,638.29023 364.43986,638.42739 363.97693,638.66296 363.58087,638.81372 363.18481,638.96448 362.74388,639.17719 362.60104,639.2864 362.13373,639.64367 362.73819,640.04672 363.76037,640.05946 364.28402,640.06598 365.08281,640.15266 365.53545,640.2521 366.88003,640.54745 368.65346,640.38649 369.29308,639.91106 z M 401.36589,634.64832 C 402.36507,633.96367 402.62866,633.3663 402.16005,632.84849 401.61566,632.24695 400.87721,632.33119 400.18333,633.074 399.55598,633.74557 399.41853,634.44802 399.83331,634.8628 400.19534,635.22483 400.60902,635.16694 401.36589,634.64832 z M 358.98005,639.94474 C 359.04519,639.775 359.13487,639.63612 359.17934,639.63612 359.22381,639.63612 359.2602,639.775 359.2602,639.94474 359.2602,640.11448 359.17052,640.25336 359.06091,640.25336 358.9513,640.25336 358.91492,640.11448 358.98005,639.94474 z M 377.57159,630.68107 C 377.57159,630.22347 381.51739,629.39646 384.25834,629.27958 386.59946,629.17974 386.63674,629.18417 384.97845,629.36509 382.7215,629.61132 379.96925,630.11803 378.85032,630.49333 377.91619,630.80664 377.57159,630.85724 377.57159,630.68107 z M 427.87649,629.34881 C 427.30707,629.20391 427.2991,629.19011 427.77362,629.17056 428.05652,629.1589 428.42686,629.23911 428.5966,629.34881 428.94677,629.5751 428.76582,629.5751 427.87649,629.34881 z M 389.65917,629.20361 C 389.91378,629.15457 390.33042,629.15457 390.58503,629.20361 390.83964,629.25265 390.63132,629.29277 390.1221,629.29277 389.61288,629.29277 389.40456,629.25265 389.65917,629.20361 z M 391.30122,629.00811 C 391.44052,628.95175 391.71828,628.94832 391.91846,629.00048 392.11865,629.05265 392.00468,629.09876 391.6652,629.10295 391.32571,629.10715 391.16193,629.06447 391.30122,629.00811 z M 423.92637,627.90038 C 423.26073,627.1914 422.22524,626.37405 421.5153,625.99723 420.8309,625.63397 419.9453,625.01064 419.5473,624.61205 418.3142,623.37712 416.8072,622.22445 415.84035,621.77668 414.98286,621.37956 413.50554,620.29933 413.81675,620.29701 414.30559,620.29335 418.31574,622.71182 419.27587,623.58933 419.91672,624.17503 421.14188,625.11946 421.99844,625.68805 423.90415,626.95308 426.1259,629.14306 425.50357,629.14306 425.26751,629.14306 424.59733,628.61502 423.92637,627.90038 z M 409.05073,620.05003 C 408.54151,619.93898 408.03229,619.7501 407.91913,619.63029 407.77787,619.48072 407.81426,619.44755 408.03524,619.52448 408.4757,619.6778 411.2098,620.08104 412.34267,620.15976 412.85189,620.19514 412.52784,620.23035 411.62256,620.23801 410.71727,620.24566 409.55995,620.16107 409.05073,620.05003 z M 401.23238,619.50325 402.56973,619.38974 401.12951,619.27403 C 399.86549,619.17248 400.08476,619.13681 402.92184,618.98249 404.69975,618.88578 406.59775,618.88495 407.13963,618.98064 408.0964,619.14959 408.06839,619.15904 406.17029,619.30773 405.09527,619.39195 403.24355,619.49593 402.05537,619.5388 400.86718,619.58167 400.49684,619.56567 401.23238,619.50325 z"
       style="fill:#a9b7c3"
       inkscape:label="#path4483" />
    <path
       style="fill:#333333;fill-opacity:1;stroke:none"
       d="M 96.837908,619.69392 95.00567,619.94151 C 95.00567,619.94151 93.965743,620.48624 93.866702,620.68432 93.767661,620.8824 93.3715,622.26896 93.3715,622.26896 L 94.213341,623.85362 94.659021,624.94306 94.708547,625.53729 95.104711,626.52771 94.510461,627.51811 94.114305,629.05323 95.030432,630.41504 100.60144,627.86475 C 100.60144,627.86475 100.60144,624.84402 100.45289,624.49738 100.30433,624.15073 98.422557,622.41753 98.224475,622.07088 98.026393,621.72425 97.382629,619.892 97.382629,619.892 L 96.837908,619.69392 z"
       id="monkeyg"
       sodipodi:nodetypes="ccscccccccccsscc"
       inkscape:label="#path3325" />
    <rect
       style="fill:#a9b8c4;fill-opacity:1;stroke:none"
       id="rect4590"
       width="237.38585"
       height="176.77669"
       x="38.57275"
       y="803.73846" />
    <path
       style="fill:none;stroke:#000000;stroke-width:1px;stroke-linecap:butt;stroke-linejoin:miter;stroke-opacity:1"
       d="M 108.16988,869.62498 C 109.43192,871.24283 111.41536,871.9889 113.24254,872.76581 116.11824,873.56065 119.10779,873.77961 122.0452,874.21905 122.87763,874.50882 123.65512,875.15073 123.8579,876.04142"
       id="path4501" />
    <path
       style="fill:#000000"
       d="M 101.45106,638.80465 C 99.718641,635.43149 100.37752,632.64487 96.569865,634.01383 95.229233,634.3623 93.523757,634.92896 92.043441,635.63851 90.935761,636.03133 89.986878,637.0432 88.739184,636.90305 88.046955,635.92338 90.074259,635.08527 90.167758,634.07872 90.270836,632.83466 90.523128,631.42429 91.492876,630.55358 92.19887,629.71876 93.988097,631.62799 93.761158,630.10346 93.077283,628.93138 94.28651,627.67644 94.647693,626.56512 94.803569,625.45028 96.850786,625.54967 97.444698,626.15775 96.583965,626.68921 95.17474,626.12058 94.584112,627.23301 94.198325,627.75455 93.547204,629.04657 94.667589,628.59735 94.125379,629.16541 94.600042,630.88673 95.182914,629.80225 96.168135,629.31056 96.854932,628.10798 98.146391,627.9817 99.903401,627.53174 97.992318,625.97184 97.17686,625.58048 95.837374,625.0011 96.20132,623.55558 96.551918,622.46901 96.533047,620.946 94.730504,622.77833 94.043398,622.13565 93.766032,620.71349 95.674777,620.98048 96.406131,620.82542 95.569049,620.15757 93.688181,620.7483 93.706805,621.9205 94.077969,622.36291 94.880242,624.42301 93.740494,623.65176 93.103205,622.82401 92.501676,621.40834 93.470262,620.58904 94.440864,619.97372 95.554384,619.19217 96.740697,619.2447 97.81203,619.71089 97.387128,621.6989 98.904774,621.38134 100.69534,621.95679 101.85982,623.68302 102.51924,625.36369 103.10251,626.83404 102.55512,628.3974 102.52989,629.91246 102.35417,631.98632 102.05128,632.67749 101.48145,634.52924 101.32771,636.11744 101.4519,637.47696 101.45106,638.80465 z M 93.647496,633.85649 C 94.958137,632.59561 91.944306,633.37554 92.82704,634.28497 93.150738,634.2988 93.415095,634.04682 93.647496,633.85649 z M 94.285381,625.09911 C 94.448666,624.03796 96.430731,625.56489 94.904295,625.39808 94.685605,625.39065 94.145205,625.52042 94.285381,625.09911 z M 94.842568,622.65109 C 94.498453,622.14 95.551477,623.08409 94.842568,622.65109 z M 95.570699,622.57827 C 96.181388,621.90975 95.833585,622.98296 95.484483,622.7332 L 95.570699,622.57827 z"
       id="monkey"
       sodipodi:nodetypes="ccccccccccccccccccccccccccccccccccccc"
       inkscape:label="#path4365" />
    <path
       style="fill:none;stroke:#000000;stroke-width:1px;stroke-linecap:butt;stroke-linejoin:miter;stroke-opacity:1"
       d="M 101.16235,634.24974 C 101.16235,634.24974 101.18521,635.82936 101.25164,636.61581 101.29965,637.18414 101.37641,637.75045 101.47485,638.31224 101.58266,638.92751 101.7238,639.53693 101.87664,640.14259 102.00918,640.6678 102.21756,641.17379 102.32307,641.70509 102.42518,642.21927 102.48722,642.74356 102.50164,643.26759 102.51558,643.77423 102.5082,644.28777 102.41235,644.78545 102.32336,645.24754 102.23677,645.73992 101.96592,646.12474 101.81343,646.3414 101.59132,646.52921 101.34092,646.61581 101.17216,646.67418 100.97836,646.65946 100.80521,646.61581 100.59216,646.5621 100.38971,646.44856 100.22485,646.30331 100.03275,646.13406 99.86772,645.91825 99.77842,645.67831 99.63768,645.30015 99.56623,644.86372 99.66682,644.47295 99.71389,644.29009 99.81577,644.08818 99.9849,644.00421 100.23683,643.87913 100.621,643.8579 100.82753,644.04885 101.04658,644.25137 100.94471,644.93612 100.94471,644.93612"
       id="tail"
       sodipodi:nodetypes="caaaaaaaaaaaaaaa"
       inkscape:label="#tail" />
    <path
       style="fill:#800000;fill-opacity:1;stroke:none"
       d="M 53.509301,579.03265 C 53.509301,580.00896 52.717841,580.80041 51.741531,580.80041 50.765221,580.80041 49.973761,580.00896 49.973761,579.03265 49.973761,578.05633 50.765221,577.26488 51.741531,577.26488 52.717841,577.26488 53.509301,578.05633 53.509301,579.03265 z"
       id="apple-3"
       inkscape:label="#apple-2-0-3-1-1" />
    <path
       style="fill:#800000;fill-opacity:1;stroke:none"
       d="M 76.187877,579.56836 C 76.187877,580.54467 75.396417,581.33612 74.420107,581.33612 73.443797,581.33612 72.652337,580.54467 72.652337,579.56836 72.652337,578.59204 73.443797,577.80059 74.420107,577.80059 75.396417,577.80059 76.187877,578.59204 76.187877,579.56836 z"
       id="apple-4"
       inkscape:label="#apple-2-0-3-1" />
    <path
       style="fill:#800000;fill-opacity:1;stroke:none"
       d="M 104.22358,580.99693 C 104.22358,581.97324 103.43212,582.76469 102.45581,582.76469 101.4795,582.76469 100.68804,581.97324 100.68804,580.99693 100.68804,580.02061 101.4795,579.22916 102.45581,579.22916 103.43212,579.22916 104.22358,580.02061 104.22358,580.99693 z"
       id="apple-5"
       inkscape:label="#apple-2-0-3" />
    <path
       style="fill:#800000;fill-opacity:1;stroke:none"
       d="M 114.22359,593.49693 C 114.22359,594.47324 113.43213,595.26469 112.45582,595.26469 111.47951,595.26469 110.68805,594.47324 110.68805,593.49693 110.68805,592.52061 111.47951,591.72916 112.45582,591.72916 113.43213,591.72916 114.22359,592.52061 114.22359,593.49693 z"
       id="apple-6"
       inkscape:label="#apple-2-0" />
    <path
       style="fill:#800000;fill-opacity:1;stroke:none"
       d="M 122.2593,591.35407 C 122.2593,592.33038 121.46784,593.12183 120.49153,593.12183 119.51522,593.12183 118.72376,592.33038 118.72376,591.35407 118.72376,590.37775 119.51522,589.5863 120.49153,589.5863 121.46784,589.5863 122.2593,590.37775 122.2593,591.35407 z"
       id="apple-8"
       inkscape:label="#apple-2-0-3-1-1-0-3-6-8" />
    <path
       style="fill:#800000;fill-opacity:1;stroke:none"
       d="M 129.93787,593.49693 C 129.93787,594.47324 129.14641,595.26469 128.1701,595.26469 127.19379,595.26469 126.40233,594.47324 126.40233,593.49693 126.40233,592.52061 127.19379,591.72916 128.1701,591.72916 129.14641,591.72916 129.93787,592.52061 129.93787,593.49693 z"
       id="apple-9"
       inkscape:label="#apple-2" />
    <path
       style="fill:#800000;fill-opacity:1;stroke:none"
       d="M 132.2593,586.35407 C 132.2593,587.33038 131.46784,588.12183 130.49153,588.12183 129.51522,588.12183 128.72376,587.33038 128.72376,586.35407 128.72376,585.37775 129.51522,584.5863 130.49153,584.5863 131.46784,584.5863 132.2593,585.37775 132.2593,586.35407 z"
       id="apple-10"
       inkscape:label="#apple-2-0-3-1-1-0-3" />
    <path
       style="fill:#800000;fill-opacity:1;stroke:none"
       d="M 153.15216,590.46122 C 153.15216,591.43753 152.3607,592.22898 151.38439,592.22898 150.40808,592.22898 149.61662,591.43753 149.61662,590.46122 149.61662,589.4849 150.40808,588.69345 151.38439,588.69345 152.3607,588.69345 153.15216,589.4849 153.15216,590.46122 z"
       id="apple-1"
       inkscape:label="#apple-2-0-3-1-1-0-3-6" />
    <path
       style="fill:#800000;fill-opacity:1;stroke:none"
       d="M 159.6845,597.61402 C 159.6845,598.59033 158.89304,599.38178 157.91673,599.38178 156.94042,599.38178 156.14896,598.59033 156.14896,597.61402 156.14896,596.6377 156.94042,595.84625 157.91673,595.84625 158.89304,595.84625 159.6845,596.6377 159.6845,597.61402 z"
       id="apple-0"
       inkscape:label="#apple" />
    <path
       style="fill:#800000;fill-opacity:1;stroke:none"
       d="M 182.79501,594.38979 C 182.79501,595.3661 182.00355,596.15755 181.02724,596.15755 180.05093,596.15755 179.25947,595.3661 179.25947,594.38979 179.25947,593.41347 180.05093,592.62202 181.02724,592.62202 182.00355,592.62202 182.79501,593.41347 182.79501,594.38979 z"
       id="apple-2"
       inkscape:label="#apple-7" />
    <path
       style="fill:#333333"
       d="M 60.079359,680.72369 C 61.919875,676.22008 65.593116,669.45239 68.109809,665.92818 71.056655,661.80162 78.292834,654.1173 82.288108,650.87181 83.714881,649.7128 86.804906,647.58168 89.154829,646.13601 91.504751,644.69033 95.122607,642.23393 97.194518,640.67734 103.08857,636.24925 105.73007,634.46898 110.37394,631.79498 112.74662,630.42875 116.27624,628.22168 118.21754,626.8904 120.15882,625.5591 124.65909,622.64243 128.21812,620.4089 134.89867,616.21643 139.04534,612.80499 141.5637,609.42962 143.6971,606.57022 146.30458,604.81168 149.39584,604.14743 150.15078,603.9852 151.47439,603.37569 152.33718,602.79297 154.54774,601.29996 154.60558,601.28611 162.28491,600.41133 166.08871,599.97803 170.25981,599.45069 171.554,599.23947 172.84819,599.02824 176.20134,598.79645 179.00542,598.72438 184.04025,598.59496 184.13796,598.575 186.84901,597.12188 190.24474,595.30178 190.57472,595.0311 190.57472,594.06576 190.57472,593.64088 190.92769,592.84453 191.35908,592.29609 191.79049,591.74766 192.14345,591.06423 192.14345,590.77736 192.14345,589.84148 190.72887,589.40524 188.97329,589.79969 186.70839,590.30858 186.1882,590.03322 186.47965,588.4797 186.68298,587.39583 186.5394,587.06494 185.47834,586.17212 183.74293,584.71187 182.49989,584.84353 179.97532,586.75501 178.79478,587.64885 176.94647,588.95131 175.86799,589.64938 173.35206,591.27782 172.63091,592.10794 172.46921,593.56171 172.34255,594.70057 172.25673,594.74731 169.78919,595.02106 168.38714,595.17661 166.41492,595.41393 165.40646,595.54845 163.67911,595.77886 163.5403,595.72839 163.01037,594.67736 162.70099,594.06375 162.33529,593.09157 162.19772,592.51695 162.06014,591.94235 161.23889,590.9109 160.37268,590.22486 157.55301,587.99164 156.18045,584.75289 155.7204,579.24715 155.49496,576.54925 155.39891,576.29507 154.55987,576.17623 153.31767,576.0003 152.20909,577.09955 151.903,578.81076 151.50474,581.03727 150.73062,581.67201 148.77171,581.37826 147.27014,581.15308 146.9804,581.25462 145.65254,582.47153 144.25763,583.74986 144.17969,583.95351 143.99728,586.79577 143.72423,591.05032 143.94213,591.60524 146.3631,592.82129 148.95725,594.12433 148.86372,594.00558 148.02538,594.93193 147.06948,595.9882 146.03932,595.9246 142.75951,594.60686 139.72273,593.38677 138.78916,592.69131 137.59554,590.75998 136.65921,589.24496 136.94662,588.40494 139.05224,586.50247 140.87156,584.85868 141.08097,583.6012 139.79072,582.06783 138.25882,580.24729 136.82805,580.14195 132.48373,581.52986 130.46119,582.17601 126.33566,583.16788 123.31587,583.73399 115.09756,585.27466 112.83499,585.85195 111.66439,586.70687 110.43598,587.60402 109.88367,587.72166 110.52434,586.94971 110.8021,586.61502 110.93883,584.89931 110.89156,582.34159 110.85015,580.1004 110.99943,576.67837 111.2233,574.73707 111.68585,570.72604 111.43942,569.83482 109.86782,569.83482 108.20021,569.83482 101.50958,573.7775 100.49348,575.35897 98.01762,579.21244 96.843731,579.68769 96.843731,576.83657 96.843731,575.55496 97.108884,575.03438 98.41245,573.75662 101.54152,570.68951 100.18954,569.47273 94.490652,570.227 91.65094,570.60285 90.511552,570.61611 89.884648,570.28061 89.426526,570.03543 88.42539,569.83482 87.659902,569.83482 86.413844,569.83482 86.058337,570.10175 84.264792,572.38399 81.971606,575.30202 81.227488,575.5119 79.548284,573.7143 78.105136,572.16942 77.836689,572.22753 70.908941,575.58475 67.968998,577.00947 65.365902,578.05296 65.124289,577.90364 64.882668,577.75431 64.684979,576.67189 64.684979,575.49829 64.684979,573.89651 64.49189,573.17135 63.910598,572.59006 62.620918,571.30038 61.447209,571.25189 58.745354,572.37664 54.586979,574.10773 54.119974,574.23982 53.080372,573.97889 52.345777,573.79452 51.813462,573.14858 51.085203,571.55787 49.816411,568.78646 48.941553,568.3534 46.350299,569.21408 44.073535,569.9703 42.795748,569.65695 41.680345,568.0689 39.432311,564.86824 39.136667,564.6408 37.508077,564.85924 35.053085,565.18853 31.355226,567.24121 28.035637,570.1174 26.347886,571.57973 24.130137,573.39385 23.107303,574.1488 22.084469,574.90375 20.558588,576.22735 19.71647,577.09016 17.711185,579.14466 9.089268,584.6139 6.192734,585.66882 4.021901,586.45945 3.888265,586.46563 3.228495,585.80587 2.710828,585.28819 2.535944,584.46971 2.531027,582.54161 2.520476,578.4091 1.904032,578.23357 -6.887853,579.85971 -13.903446,581.15732 -14.60666,581.47555 -16.29678,584.11765 -17.048587,585.29289 -17.845918,586.36708 -18.068643,586.50474 -18.714022,586.9036 -19.633703,584.17239 -19.633703,581.85693 -19.633703,578.1731 -19.840634,578.16193 -28.760614,581.36386 -35.047803,583.62073 -36.57606,584.40114 -37.731796,585.94509 -39.425063,588.20712 -44.108894,593.00838 -45.401925,593.80752 -46.257545,594.33632 -46.831399,595.10547 -47.140809,596.13819 -47.394811,596.98596 -47.707052,597.68908 -47.834686,597.70069 -47.96232,597.71229 -49.125632,597.77027 -50.419826,597.82956 -51.714013,597.88885 -53.189659,598.08157 -53.699024,598.25783 -54.583254,598.5638 -54.612352,598.51806 -54.342359,597.24655 -54.186825,596.51409 -54.034796,595.766 -54.00451,595.58415 -53.974232,595.40231 -54.261668,595.04935 -54.643271,594.7998 -55.19461,594.43925 -55.597306,594.50031 -56.604169,595.09717 -57.301056,595.51028 -58.813649,596.37042 -59.965494,597.0086 -63.454548,598.94173 -64.466283,601.63814 -62.55491,603.90969 -61.682539,604.94643 -61.600146,605.27611 -61.922014,606.44183 -62.416211,608.23167 -61.615058,609.856 -59.714843,610.91685 -58.916563,611.36252 -56.081721,612.2632 -53.415214,612.91837 -48.793656,614.05389 -48.49555,614.081 -47.038758,613.49811 -46.198222,613.16179 -45.026787,612.98221 -44.43555,613.09903 -40.464938,613.8836 -38.669612,614.66046 -34.135373,617.556 -26.691817,622.30941 -24.549459,623.53961 -21.921642,624.56945 -20.595443,625.08918 -19.229278,625.7519 -18.885717,626.04216 -17.775539,626.98012 -14.225357,629.00543 -14.031396,628.81147 -13.70834,628.48842 -4.979343,632.77847 -2.340395,634.55726 2.327224,637.70348 13.491623,647.108 14.889528,649.07116 16.202919,650.91565 19.806704,653.41125 23.030074,654.70842 26.906468,656.26839 31.938272,660.79139 38.773918,668.86025 41.086613,671.59018 47.429062,681.55558 47.429062,682.4594 47.429062,682.63718 50.086062,682.78264 53.333494,682.78264 L 59.237933,682.78264 60.079359,680.72369 z M 56.535522,667.38958 C 56.734802,663.15407 57.375264,660.98168 58.91904,659.3049 59.394076,658.78894 62.694666,656.43387 66.253697,654.07139 69.812731,651.70891 72.355089,650.18736 71.903384,650.69017 67.025838,656.11939 64.154485,659.75356 60.807371,664.73401 58.626073,667.97973 56.841385,670.8095 56.841385,671.02238 56.841385,671.23524 56.730005,671.40942 56.59388,671.40942 56.457755,671.40942 56.431497,669.60049 56.535522,667.38958 z M 44.847283,665.13454 C 43.163602,662.8697 41.563383,660.39897 41.291244,659.64402 40.308247,656.91713 40.751208,652.7604 42.092379,652.12631 42.972941,651.71 44.683804,649.32558 44.683804,648.51466 44.683804,648.2473 44.927307,647.69552 45.224918,647.28852 45.733172,646.59344 45.815145,646.64475 46.574461,648.13312 47.819284,650.57317 49.390833,656.61973 49.382343,658.93647 49.378144,660.08057 49.119019,662.78146 48.806505,664.93846 48.493991,667.09544 48.232695,669.02203 48.225864,669.21975 48.209822,669.6832 48.396994,669.90952 44.847283,665.13454 z M 30.505524,650.75703 C 28.423499,648.74251 26.536024,647.09427 26.311145,647.09427 26.086256,647.09427 25.092485,646.0795 24.10275,644.83923 23.113023,643.59897 20.871162,641.34883 19.120838,639.83894 16.32502,637.42716 15.585508,636.48555 13.033074,632.0875 10.458374,627.6511 10.194256,627.01478 10.712419,626.49662 11.54998,625.65906 11.842282,624.48836 11.416583,623.67633 10.845757,622.58747 11.579394,621.23776 13.083728,620.60921 14.508797,620.01378 15.631613,618.71854 17.420834,615.60606 18.447123,613.82076 18.467328,613.69047 17.827627,612.98362 17.190653,612.27977 17.193423,612.19903 17.879169,611.48091 18.278318,611.0629 19.424759,610.60294 20.431339,610.45695 22.019604,610.2266 22.335282,610.30103 22.842774,611.02558 23.397192,611.81712 23.487204,611.82798 24.623461,611.2404 26.120082,610.46647 26.64353,610.45855 26.64353,611.20981 26.64353,611.53336 26.792224,611.79807 26.973949,611.79807 27.155682,611.79807 27.641003,612.45989 28.052447,613.26875 28.463883,614.07763 29.184797,615.14777 29.65447,615.64685 30.124135,616.14595 30.951974,617.70204 31.494113,619.10486 32.036252,620.50767 33.526136,623.27598 34.804974,625.25667 37.626092,629.62604 38.801109,631.89445 38.801109,632.97136 38.801109,633.41749 39.330543,634.83134 39.97764,636.11323 40.624737,637.39512 41.587845,639.42452 42.117878,640.62303 L 43.081584,642.80213 40.531476,646.14435 C 37.20119,650.50908 36.451263,651.77646 36.449493,653.04294 36.448706,653.61847 36.342149,654.36528 36.212737,654.70253 35.852536,655.64119 34.804691,654.91679 30.505524,650.75704 z M 52.707114,647.41953 C 50.195329,643.5367 48.213422,639.4523 48.213422,638.15871 48.213422,637.29841 48.701574,636.62575 50.373334,635.18246 53.597928,632.39855 53.88179,631.64939 52.950018,628.38216 52.532521,626.91823 52.162616,625.89694 52.128012,626.11263 52.093381,626.32834 51.81955,625.62242 51.519451,624.54392 50.746874,621.76746 50.796647,617.16676 51.616192,615.60236 51.977812,614.91205 52.239733,613.86193 52.198228,613.26875 52.131739,612.31852 52.260579,612.19025 53.281498,612.19025 54.364006,612.19025 54.458242,612.0677 54.71381,610.3274 54.864283,609.30283 55.133685,608.11159 55.312503,607.68019 55.756884,606.60806 57.109016,605.0841 57.715747,604.97152 58.609562,604.80569 61.079877,603.14814 61.304115,602.56377 61.424464,602.25016 61.793181,601.99357 62.123507,601.99357 62.453822,601.99357 62.72408,601.72332 62.72408,601.39301 62.72408,601.06267 62.988805,600.69084 63.31235,600.56668 63.635894,600.44253 63.900619,600.10124 63.900619,599.80827 63.900619,599.51531 64.404178,598.6959 65.019647,597.98738 66.667647,596.0902 67.020734,595.23506 67.284928,592.50129 67.416171,591.14323 67.759946,589.65241 68.048878,589.18834 68.820266,587.94938 71.761477,586.94647 73.912518,587.18892 76.099336,587.43541 77.147186,588.32269 77.449588,590.18398 77.957457,593.30993 78.102069,593.75781 78.603543,593.75781 79.277743,593.75781 80.657785,596.62811 80.986901,598.71488 81.191819,600.01416 81.093896,600.4875 80.496614,601.08478 80.08612,601.49528 79.506109,602.42057 79.207699,603.141 78.418108,605.04724 77.113082,606.44999 74.782608,607.89745 72.815155,609.11945 69.445298,612.29294 69.342115,613.02093 69.239607,613.74415 69.130774,614.00801 68.147987,615.91596 67.209008,617.73887 65.897344,622.61975 65.26043,626.66097 65.110916,627.60965 64.743789,628.9717 64.444597,629.68776 64.145413,630.40383 63.900619,631.74548 63.900619,632.6692 63.900619,635.89379 62.834544,639.54271 60.703174,643.61326 58.348283,648.1107 56.145497,650.78371 55.118798,650.38974 54.760111,650.25209 53.674857,648.9155 52.707114,647.41953 z M 63.49675,648.68482 C 63.721195,648.26544 64.082421,647.81256 64.29946,647.67842 64.516507,647.54427 65.307536,646.47556 66.057291,645.30349 66.807055,644.13142 67.663607,643.17246 67.960747,643.17246 68.60669,643.17246 70.567678,644.65376 70.567678,645.14168 70.567678,645.57562 64.310396,649.44734 63.60908,649.44734 63.215155,649.44734 63.187854,649.262 63.49675,648.68482 z M 71.834458,641.27125 C 69.203837,639.48297 68.755581,638.04274 70.331515,636.44231 71.527703,635.22753 71.811524,633.09387 71.334899,628.89925 71.00828,626.0248 71.042636,625.24328 71.539363,624.24757 71.86773,623.58934 72.136398,622.52336 72.136398,621.87873 72.136398,621.23411 72.488876,619.52313 72.919686,618.07655 73.582742,615.85014 74.073025,615.0729 76.113839,613.01302 77.439816,611.67464 79.249227,610.21617 80.134753,609.77195 81.020283,609.32774 82.097767,608.66268 82.529165,608.29403 83.6973,607.29579 88.453431,604.59481 91.353213,603.2829 92.755256,602.64859 94.608306,601.68996 95.471102,601.15263 98.080782,599.52735 109.42993,598.38973 112.0886,599.48691 112.81596,599.78708 113.87485,600.03283 114.44168,600.03303 115.98879,600.03342 123.76085,602.20166 124.9065,602.9523 126.96296,604.29975 126.95499,604.31422 120.14662,611.60199 118.13152,613.75898 115.73315,616.28149 114.81692,617.20758 113.5213,618.51713 113.17068,619.14909 113.23939,620.05088 113.30182,620.87021 113.15113,621.21039 112.72577,621.21039 112.28644,621.21039 112.18754,621.46432 112.35968,622.15023 112.79214,623.87325 109.95977,626.14484 101.94207,630.50531 97.951635,632.67552 94.24554,634.5834 93.706292,634.74505 93.167045,634.90671 91.755197,635.52071 90.568853,636.10952 89.382508,636.69832 87.264737,637.56287 85.862694,638.03077 84.460651,638.49866 81.460475,639.8228 79.195636,640.97332 76.930796,642.12381 74.853636,643.00524 74.579717,642.93203 74.305803,642.85882 73.070436,642.11147 71.834458,641.27125 z M 8.779327,633.96884 C 7.982586,632.06195 8.10067,631.73362 8.995434,633.36797 9.776664,634.79495 9.931395,635.32887 9.563687,635.32887 9.444834,635.32887 9.091875,634.71685 8.779327,633.96884 z M 2.54346,632.38752 C 0.92343696,631.18984 -1.019231,629.21985 -2.447747,627.32612 L -4.786571,624.22562 -3.680223,623.34258 C -3.071732,622.85689 -1.956193,622.26594 -1.201247,622.02933 0.16446396,621.6013 0.18500296,621.61302 2.871904,624.35437 5.45777,626.99265 5.543978,627.14105 4.902514,627.84987 4.16178,628.66836 4.279487,629.3494 5.85013,633.33248 6.641099,635.33836 6.646075,635.42386 5.94127,634.90119 5.531288,634.59717 4.002269,633.46601 2.54346,632.38752 z M 44.737211,631.01126 C 44.209591,629.37305 43.26726,627.55338 42.404988,626.50763 35.773461,618.46512 35.432259,617.95127 34.076398,613.96492 33.460279,612.15348 32.781989,610.35132 32.569081,609.96015 31.697583,608.35888 30.173147,604.60495 30.173147,604.06012 30.173147,603.73895 29.315919,602.53824 28.268195,601.39186 26.622958,599.59171 26.252248,598.86556 25.549127,596.06577 24.973025,593.77177 24.847614,592.61359 25.12018,592.1043 25.332028,591.70846 26.952693,590.44772 28.721657,589.30266 30.49062,588.15758 32.903424,586.39272 34.083435,585.38073 36.90156,582.96389 38.258269,582.57887 42.178253,583.0835 44.00525,583.31869 46.155295,583.34757 47.429062,583.15404 53.505838,582.23074 53.448687,582.22957 55.495305,583.31907 56.555762,583.8836 57.632806,584.34548 57.888742,584.34548 58.144677,584.34548 58.631563,584.62298 58.970712,584.96212 59.686658,585.67806 59.494219,586.87465 58.281485,589.24773 57.778765,590.23146 57.453322,591.69393 57.408765,593.16953 57.369706,594.46372 57.109307,596.05205 56.830132,596.69915 56.550956,597.34625 56.358407,598.03014 56.402236,598.21891 56.446066,598.40768 56.229438,598.84888 55.920849,599.19936 55.161047,600.06227 52.75327,604.95828 52.135852,606.89582 51.383583,609.25654 49.992818,611.85561 48.788601,613.15117 47.870699,614.1387 47.691625,614.71316 47.566103,617.07297 47.485206,618.59361 47.707606,622.07807 48.060307,624.81622 48.413018,627.55437 48.589715,630.24046 48.452966,630.78531 48.229805,631.67444 46.400269,633.76015 45.843499,633.76015 45.721979,633.76015 45.224149,632.52315 44.737211,631.01126 z M -7.868302,627.09308 C -8.099176,626.66169 -8.132745,626.30873 -7.94288,626.30873 -7.753024,626.30873 -7.278263,626.66169 -6.887853,627.09308 -6.261337,627.78538 -6.252581,627.87745 -6.813275,627.87745 -7.162659,627.87745 -7.637429,627.52448 -7.868302,627.09308 z M 6.461178,622.34742 C 4.968414,621.03675 4.963669,620.42603 6.446283,620.42603 7.605216,620.42603 8.048383,619.81365 7.141332,619.46558 6.571925,619.24707 6.55579,619.1532 7.036588,618.85606 7.40911,618.62582 7.825453,618.70442 8.245089,619.08417 8.815676,619.60054 8.952972,619.56641 9.508057,618.77019 10.056327,617.98376 10.133307,617.96347 10.151418,618.60068 10.162756,618.99878 9.844761,619.79295 9.444817,620.36549 9.044873,620.93804 8.600313,621.8918 8.456903,622.48498 8.313485,623.07815 8.117412,623.56347 8.021175,623.56347 7.924939,623.56347 7.222947,623.01625 6.461195,622.34742 z M 118.00918,620.0579 C 119.19766,617.72829 122.21719,615.70356 128.89324,612.75966 130.2791,612.14854 130.93094,611.99054 130.5712,612.35294 129.22706,613.70699 117.42343,622.28101 117.31221,621.9841 117.24569,621.80648 117.55933,620.93969 118.00918,620.0579 z M -20.411888,620.07229 C -22.684326,619.20883 -28.365186,615.95196 -29.060756,615.11385 -29.887629,614.11754 -28.771166,613.24779 -26.974687,613.48875 -25.194076,613.72758 -23.578697,614.80605 -19.829792,618.25888 -16.879996,620.97572 -17.005475,621.36662 -20.411888,620.07229 z M 11.620155,616.86009 C 11.01681,617.46343 9.277697,617.41285 9.498027,616.79838 9.5947,616.52875 9.508613,615.98747 9.306743,615.59553 8.885081,614.77691 9.704642,613.25233 10.914418,612.60487 11.489015,612.29736 11.906026,612.40352 12.758969,613.07444 13.365118,613.55124 14.134026,613.94443 14.467643,613.94821 15.231481,613.95683 15.065036,615.62483 14.204047,616.58966 13.734912,617.11539 13.43218,617.17201 12.825766,616.84747 12.273802,616.55206 11.924512,616.55573 11.620155,616.8601 z M -17.433559,613.05413 C -19.369165,612.19921 -19.965592,611.68113 -21.114146,609.85704 -22.888881,607.03847 -23.702509,606.14773 -26.202717,604.2862 -27.335134,603.44305 -28.261655,602.49812 -28.261655,602.18635 -28.261655,601.87457 -27.776335,601.31414 -27.183166,600.94095 -26.589989,600.56775 -25.605802,599.85775 -24.99608,599.36319 -23.567872,598.20469 -22.57729,598.22735 -21.122157,599.45177 -20.009807,600.38775 -19.733376,600.43405 -15.853553,600.33418 L -11.75889,600.22877 -9.689621,602.38575 C -8.551534,603.57211 -7.014341,604.89788 -6.273658,605.33192 -5.169936,605.97872 -4.862167,606.45556 -4.567899,607.97481 -4.093899,610.42193 -4.678501,611.7976 -6.193129,611.79929 -6.790923,611.80007 -8.514348,612.42219 -10.022957,613.18205 -13.110886,614.73739 -13.643303,614.72819 -17.433559,613.05412 z M 123.90415,610.79462 C 123.90415,610.40024 126.38018,607.48409 126.71504,607.48409 126.89463,607.48409 127.04159,608.0079 127.04159,608.64811 127.04159,609.51465 126.76597,609.96165 125.96309,610.39723 124.85459,610.99859 123.90415,611.18204 123.90415,610.79462 z M 23.898272,609.44499 C 23.898272,609.2293 24.08517,609.05281 24.313598,609.05281 24.542026,609.05281 24.619853,609.2293 24.486541,609.44499 24.353229,609.66069 24.166332,609.83717 24.071215,609.83717 23.976091,609.83717 23.898272,609.66069 23.898272,609.44499 z M 0.75965096,608.45075 C 0.75965096,608.13479 1.002769,607.87627 1.29991,607.87627 2.02445,607.87627 2.851297,608.91616 2.534421,609.42888 2.185602,609.99329 0.75965096,609.20741 0.75965096,608.45075 z M 129.00248,607.288 C 129.00248,606.77421 129.18544,606.24077 129.40905,606.10257 129.97908,605.75028 132.92428,606.29556 132.92428,606.75338 132.92428,607.21784 129.74474,608.68091 129.31397,608.41468 129.14266,608.30879 129.00248,607.80179 129.00248,607.288 z M 5.209779,606.90782 C 4.116915,606.14236 3.854173,604.97464 4.55095,603.97984 5.616477,602.45861 9.387613,603.18388 9.387613,604.91005 9.387613,605.8237 7.781187,607.48409 6.897239,607.48409 6.42164,607.48409 5.662283,607.22477 5.209779,606.90782 z M -56.152896,606.01343 C -56.23511,604.79915 -56.0497,604.16628 -55.398463,603.43826 -54.791904,602.76018 -54.73707,602.75907 -54.257315,603.41517 -53.624207,604.281 -53.608414,605.61355 -54.223985,606.22911 -54.925789,606.93091 -56.099686,606.79965 -56.152913,606.01341 z M 130.47917,604.20162 C 129.74239,603.06823 130.12687,602.15637 133.02232,598.16982 134.94948,595.51645 136.49335,595.42176 139.10111,597.79697 140.23355,598.82842 140.21224,599.39574 138.98323,600.93603 138.43306,601.62553 137.97246,602.36615 137.95966,602.58185 137.94688,602.79755 137.57972,603.47493 137.14377,604.08717 136.36218,605.18481 136.3123,605.19644 133.55922,604.92258 132.02366,604.76984 130.63763,604.4454 130.47917,604.20162 z M 82.333075,603.17012 C 82.333075,602.95442 82.553676,602.77761 82.8233,602.7772 83.179108,602.7768 83.313524,601.80875 83.313524,599.24722 83.313524,596.86128 83.168312,595.71812 82.865259,595.71835 82.120043,595.71875 81.846917,594.42984 82.51325,594.05694 82.845553,593.87097 83.123047,593.41875 83.129906,593.05199 83.148692,592.04792 83.925937,591.20984 86.270051,589.66606 90.128165,587.12518 92.582908,588.18038 91.935455,592.10139 91.767213,593.12026 91.611502,594.47816 91.58943,595.11894 91.562526,595.90018 91.088864,596.73997 90.151628,597.66811 88.341193,599.46098 86.664733,600.81704 86.258662,600.81704 86.081695,600.81704 85.197584,601.43472 84.293974,602.18967 82.517772,603.67364 82.333075,603.76599 82.333075,603.17012 z M 16.912597,602.6742 C 16.756515,601.86373 17.88866,601.31761 18.48619,601.91514 19.08372,602.51267 18.537596,603.64481 17.727123,603.48873 17.35148,603.41639 16.984935,603.04986 16.912597,602.6742 z M 126.34261,602.05416 C 126.2302,601.71665 126.41878,601.57532 126.86587,601.66198 127.25031,601.73651 127.64392,602.03494 127.74057,602.32516 127.85295,602.66268 127.66438,602.80402 127.21729,602.71734 126.83285,602.64282 126.43924,602.34439 126.34261,602.05416 z M -41.908443,599.9703 C -42.073306,599.10024 -40.495814,597.6796 -39.364832,597.6796 -38.622456,597.6796 -38.458336,597.88909 -38.458336,598.83665 -38.458336,599.52132 -38.73853,600.1607 -39.144647,600.40277 -40.131834,600.99114 -41.763382,600.73585 -41.908443,599.9703 z M 59.775678,596.99328 C 59.959113,595.01053 60.281896,593.72184 60.704157,593.2864 61.060168,592.91928 61.579007,592.34572 61.857139,592.01181 62.582996,591.14039 63.065298,591.26122 63.347399,592.38517 63.482737,592.92441 63.750822,593.36562 63.943132,593.36562 64.756119,593.36562 64.158298,594.63387 62.113408,597.24732 60.914749,598.77927 59.835121,600.03268 59.714259,600.03268 59.59338,600.03268 59.621024,598.66495 59.775678,596.99328 z M -32.501388,598.19636 C -32.579027,597.65104 -32.332916,597.18512 -31.823124,596.91228 -30.720026,596.32193 -29.046015,596.79833 -29.046015,597.70263 -29.046015,599.32405 -32.275158,599.78545 -32.501388,598.19636 z M 95.363792,596.95841 C 94.982241,596.71626 95.051698,596.4718 95.657923,595.92318 96.094421,595.52815 96.451552,594.75858 96.451552,594.21302 96.451552,591.67979 99.007012,588.65946 101.15035,588.65946 102.56286,588.65946 104.19171,590.64324 104.50733,592.74795 104.86174,595.1113 104.36535,595.65445 101.54591,595.98837 100.38342,596.12604 98.982225,596.47357 98.432142,596.76063 97.302229,597.35031 96.103082,597.4276 95.363792,596.95841 z M -31.791273,592.26628 C -31.791273,591.27356 -27.248783,588.13656 -25.81129,588.13656 -24.330051,588.13656 -22.590082,589.82423 -22.938739,590.92276 -23.338367,592.1819 -25.492088,592.85652 -29.340154,592.92795 -31.457443,592.96724 -31.791273,592.87713 -31.791273,592.26628 z M 3.193438,591.96615 C 2.175461,591.25314 2.383966,590.62036 3.636887,590.62036 4.594925,590.62036 6.250176,591.62807 6.250176,592.21132 6.250176,592.80547 4.151409,592.63714 3.193438,591.96615 z M 80.204099,588.43536 C 78.783066,587.01433 80.037343,583.95144 82.03894,583.95477 83.267342,583.95673 85.34771,585.30164 85.663989,586.29814 85.958876,587.22725 85.336122,588.18208 84.111502,588.67848 82.794733,589.21221 80.860612,589.09186 80.204099,588.43536 z M -7.868302,586.69856 C -9.082438,585.48442 -8.874959,584.73766 -7.323478,584.73766 -5.704815,584.73766 -4.102407,585.90933 -4.457067,586.83357 -4.808487,587.74935 -6.900302,587.66656 -7.868302,586.69856 z M 88.411863,581.78443 C 88.411863,580.6466 89.633711,580.62942 90.755778,581.75149 92.209949,583.20567 92.007647,583.58725 90.078628,583.02875 88.855446,582.67461 88.411863,582.34345 88.411863,581.78443 z"
       id="tree"
       inkscape:export-xdpi="34.104401"
       inkscape:export-ydpi="34.104401"
       inkscape:export-filename="/home/nicholas/Work/heroku/snickertyjip/public/images/savannah1.png"
       inkscape:label="#path5849" />
    <path
       style="fill:#000000"
       d="M 163.59612,884.60266 C 163.44136,887.86101 164.55237,890.97714 164.97757,894.16968 165.09151,895.50816 164.81842,897.04752 163.80356,898.00087 163.42044,898.28497 162.90438,898.35357 162.51914,898.03084 161.24386,897.11519 161.19828,894.79342 162.57498,893.94882 163.53393,893.69086 163.79893,895.88725 163.12017,895.40915 162.79342,893.62923 161.43831,896.32303 162.57545,896.8403 163.93377,897.8123 164.36925,895.53042 164.33201,894.57415 164.29982,891.84839 162.90012,889.3483 162.8503,886.61786"
       id="tailolld"
       sodipodi:nodetypes="ccccccccc"
       inkscape:label="#tail" />
    <path
       style="fill:#000000"
       d="M 184.73251,899.95286 C 184.57775,903.21121 185.68876,906.32734 186.11396,909.51988 186.2279,910.85836 185.95481,912.39772 184.93995,913.35107 184.55683,913.63517 184.04077,913.70377 183.65553,913.38104 182.38025,912.46539 182.33467,910.14362 183.71137,909.29902 184.67032,909.04106 184.93532,911.23745 184.25656,910.75935 183.92981,908.97943 182.5747,911.67323 183.71184,912.1905 185.07016,913.1625 185.50564,910.88062 185.4684,909.92435 185.43621,907.19859 184.03651,904.6985 183.98669,901.96806"
       id="tail-8"
       sodipodi:nodetypes="ccccccccc" />
  </g>
</svg>
