<?xml version="1.0" encoding="UTF-8" standalone="no"?>
<!-- Created with Inkscape (http://www.inkscape.org/) -->

<svg
   xmlns:dc="http://purl.org/dc/elements/1.1/"
   xmlns:cc="http://creativecommons.org/ns#"
   xmlns:rdf="http://www.w3.org/1999/02/22-rdf-syntax-ns#"
   xmlns:svg="http://www.w3.org/2000/svg"
   xmlns="http://www.w3.org/2000/svg"
   xmlns:sodipodi="http://sodipodi.sourceforge.net/DTD/sodipodi-0.dtd"
   xmlns:inkscape="http://www.inkscape.org/namespaces/inkscape"
   width="744.09448819"
   height="1052.3622047"
   id="svg3067"
   version="1.1"
   inkscape:version="0.47 r22583"
   sodipodi:docname="monkey1.svg">
  <defs
     id="defs3069">
    <inkscape:perspective
       sodipodi:type="inkscape:persp3d"
       inkscape:vp_x="0 : 526.18109 : 1"
       inkscape:vp_y="0 : 1000 : 0"
       inkscape:vp_z="744.09448 : 526.18109 : 1"
       inkscape:persp3d-origin="372.04724 : 350.78739 : 1"
       id="perspective3075" />
    <inkscape:perspective
       id="perspective3124"
       inkscape:persp3d-origin="0.5 : 0.33333333 : 1"
       inkscape:vp_z="1 : 0.5 : 1"
       inkscape:vp_y="0 : 1000 : 0"
       inkscape:vp_x="0 : 0.5 : 1"
       sodipodi:type="inkscape:persp3d" />
    <inkscape:perspective
       id="perspective3197"
       inkscape:persp3d-origin="0.5 : 0.33333333 : 1"
       inkscape:vp_z="1 : 0.5 : 1"
       inkscape:vp_y="0 : 1000 : 0"
       inkscape:vp_x="0 : 0.5 : 1"
       sodipodi:type="inkscape:persp3d" />
    <inkscape:perspective
       id="perspective3358"
       inkscape:persp3d-origin="0.5 : 0.33333333 : 1"
       inkscape:vp_z="1 : 0.5 : 1"
       inkscape:vp_y="0 : 1000 : 0"
       inkscape:vp_x="0 : 0.5 : 1"
       sodipodi:type="inkscape:persp3d" />
  </defs>
  <sodipodi:namedview
     id="base"
     pagecolor="#ffffff"
     bordercolor="#666666"
     borderopacity="1.0"
     inkscape:pageopacity="0.0"
     inkscape:pageshadow="2"
     inkscape:zoom="0.98994949"
     inkscape:cx="476.13138"
     inkscape:cy="509.26748"
     inkscape:document-units="px"
     inkscape:current-layer="layer1"
     showgrid="false"
     inkscape:window-width="1280"
     inkscape:window-height="772"
     inkscape:window-x="0"
     inkscape:window-y="1"
     inkscape:window-maximized="1" />
  <metadata
     id="metadata3072">
    <rdf:RDF>
      <cc:Work
         rdf:about="">
        <dc:format>image/svg+xml</dc:format>
        <dc:type
           rdf:resource="http://purl.org/dc/dcmitype/StillImage" />
        <dc:title></dc:title>
      </cc:Work>
    </rdf:RDF>
  </metadata>
  <g
     inkscape:label="Layer 1"
     inkscape:groupmode="layer"
     id="layer1">
    <g
       id="g5729">
      <path
         id="path3372"
         d="m 210,634.21933 c 5.46687,-5.52001 -3.14348,5.37193 0,0 z m -7.03636,-1.9562 c 1.48115,-2.62704 8.67628,-21.04743 6.64147,-12.06383 -2.49473,13.70102 10.40691,6.60308 8.65471,-2.88885 6.55416,-2.83562 9.85056,2.15048 13.2167,-1.39056 9.90651,3.63785 -13.62215,8.67944 -18.09582,13.66587 -1.05151,0.27259 -12.76612,7.0843 -10.41706,2.67737 z m 24.35651,-2.39348 c -6.24194,-7.50533 13.10789,2.02717 0,0 z M 234,628.27835 c 2.52248,-3.91597 2.75406,2.10212 0,0 z m -12.91667,-0.84199 c 7.66168,-7.16938 2.86513,0.68209 0,0 z m 22.19378,-10.16859 c 3.04904,-2.12507 13.17827,-10.94169 9.97289,0.5311 -2.07952,-0.34702 -9.38441,1.92648 -9.97289,-0.5311 z m 128.24742,0.41005 c -12.71507,-4.17412 -29.53764,-1.17552 -43.74569,-3.21469 -6.47472,1.59978 -12.80519,-3.33685 -8.72631,-7.48719 5.32396,-2.36984 10.09947,11.10423 13.72017,3.33469 0.55156,-6.11204 10.23343,-10.94655 12.56781,-2.45489 3.48722,5.65999 17.63176,4.89689 24.81524,1.29888 6.15049,3.00846 15.30201,-5.55183 5.12605,-2.43531 -3.61891,1.14438 -7.03633,-6.43297 -1.48162,-5.09946 6.71804,-4.67891 0.9784,-12.8314 -4.94352,-8.76494 -5.25089,-6.0427 -4.12526,-1.88811 -6.42028,1.45794 -5.91191,-3.76617 2.49648,-14.02796 -7.26503,-10.59127 -4.92305,-0.785 -17.30421,5.30717 -25.68179,0.084 -7.94994,3.00092 -16.23927,9.79315 -23.856,14.78817 -12.15781,11.31003 -27.19209,16.7808 -43.71927,17.22451 -13.1324,5.15346 -1.4032,-8.92359 1.47733,-13.57004 3.7794,-9.53495 13.81538,-12.72848 18.68154,-23.29947 2.48795,-11.73698 -16.49843,6.24649 -16.45769,12.90898 2.15466,7.68749 -15.80318,19.73483 -5.91829,6.86065 1.45535,-7.93291 10.50745,-18.05246 18.24185,-25.47554 8.05805,-3.43321 14.04828,-14.2663 21.46493,-15.13379 -10.72075,8.67553 11.16671,-2.35969 12.52838,-7.3816 1.60577,4.38735 11.72531,-13.16614 12.94478,0.79762 5.91205,7.01972 2.87268,1.40394 1.52056,-2.33149 5.77579,4.28947 5.3653,7.75193 8.1056,3.78257 6.85404,6.46357 18.11096,-10.10451 5.09061,-5.71772 -8.23281,-0.53066 -18.37924,-11.61512 -5.81256,-3.69917 5.96731,3.29427 14.34955,-4.76264 17.81092,-9.84642 -8.2283,1.54601 -18.46885,2.48328 -18.54415,-6.11303 -4.02669,-1.11367 -2.74812,-12.4298 0.0662,-2.69165 7.7703,10.87892 3.89961,0.74279 0.66177,-2.53128 4.27828,3.33727 15.92972,8.57423 6.45886,0.249 -5.33691,-3.58415 -8.5927,-8.38539 -1.0806,-2.32672 5.77805,3.57736 13.97155,-6.86519 2.20406,-5.38284 -4.17574,-4.59943 -6.96537,-6.03504 -4.48209,-12.21356 -4.71242,-4.36284 -5.79497,-4.92735 0.12368,-6.57692 -2.28694,-4.94977 13.24335,-15.80505 5.60873,-21.04057 9.58567,-1.34321 -3.28901,-1.37477 2.03309,-4.97915 3.11542,-3.17733 19.79618,-11.68282 7.69428,-12.95934 -5.20688,-6.53724 2.47159,-9.11763 5.07642,-6.03174 0.83165,-4.49583 8.02116,-9.55277 1.93171,-2.85028 9.13055,-2.11728 22.56502,-2.8477 29.67095,-2.57169 4.33468,7.99312 7.1845,5.76974 1.93938,1.02628 7.70745,2.3318 16.26417,7.33221 3.46825,7.32847 -6.73077,1.55322 -18.22959,6.09929 -19.41273,0.0181 -11.82962,3.62397 -24.31379,9.96921 -27.16458,22.05793 -1.40124,3.26907 -9.9602,20.28047 -6.08487,19.59549 1.76212,-6.61642 2.87434,1.95877 2.29015,-7.88952 7.38896,8.58095 10.46777,-6.4535 11.91882,-7.36048 6.51513,6.44206 -6.01117,12.53156 -8.81918,18.05485 -0.59038,7.46527 4.99019,22.58943 8.30401,20.7322 1.08281,-5.98708 6.15592,-21.82733 2.98808,-6.45293 4.41093,-1.30255 0.0563,-23.61251 7.54755,-12.91469 -2.33168,9.47162 -4.26952,20.55542 1.80976,14.03 5.36549,-3.00595 -7.4436,-3.95312 -1.16182,-6.70468 4.69899,1.80864 8.16333,-6.78586 12.86201,-6.64921 2.01803,-3.45492 15.59107,4.87849 4.8433,-3.99691 -6.1305,-2.8906 7.94065,-4.18173 7.19281,-5.34858 0.63079,-3.33794 8.08691,5.94007 2.49328,-3.42036 7.82294,4.22347 -7.44733,-17.83077 -3.32561,-3.01451 0.50292,-6.80264 -11.7415,-7.68958 -7.10825,-4.91062 2.13424,-3.42119 0.73566,20.4637 -1.46173,7.09544 -3.0831,-1.09894 -6.65409,-3.12504 -9.49384,-2.90863 -2.89671,0.21347 -10.97194,9.19935 -15.73725,11.40863 1.25128,-5.20136 6.86658,-12.38521 7.85073,-8.02513 6.93561,-12.96838 26.81438,-18.35458 35.60652,-5.72487 6.28187,2.19395 21.35108,21.5153 14.42765,4.79066 -2.46732,-12.50168 -9.63429,-23.63649 -12.3136,-36.18793 -7.09046,-11.6659 -22.39253,-7.70638 -33.21317,-12.65489 -7.01761,-5.29818 10.3563,2.02699 12.17455,-6.90558 9.38288,-10.18683 2.75498,-25.31392 -4.43249,-35.04226 6.01554,7.98437 11.28795,-14.34153 6.66459,-13.58597 0.46314,5.16792 -23.76709,0.0554 -9.68111,9.40874 10.53663,8.38989 -11.85117,-8.00443 -11.96953,3.04966 7.31449,-12.7602 -7.50413,-1.28572 -11.44386,4.52311 -1.64499,-0.11922 -9.45143,-5.66871 -0.26551,-2.78796 7.79188,-5.55965 4.47177,-8.57239 0.0481,-1.22572 -6.53813,0.0565 1.79517,-2.80518 0.91179,-4.71492 0.86577,-2.55498 -8.12753,1.48256 -7.45833,3.0633 -8.2028,-1.29836 -3.24848,-11.4319 1.78647,-9.57575 5.80921,-4.42281 5.34595,-6.38685 10.1587,-7.59043 0.47539,8.74639 1.43398,-7.67352 7.64742,0.41845 10.55513,2.8398 13.83535,-2.38697 20.65584,2.11039 6.37738,-7.54487 -15.48554,-15.6895 -23.55697,-8.98408 -14.47324,-1.26962 -31.40415,12.201 -19.50046,26.47435 9.58561,3.4199 11.5941,18.83875 7.14755,26.0834 -10.15962,5.49906 -11.04733,-19.44714 -13.60622,-15.21057 -2.44855,-2.80203 -0.91537,-16.55731 -3.16582,-4.90447 -1.49634,-1.05978 -12.70471,-18.72944 -3.02757,-11.3056 -5.28784,-8.35686 1.05774,-19.45513 6.88078,-23.05979 4.01333,-2.21465 7.5465,-9.55557 8.85581,-5.44408 0.48771,-7.58686 7.78033,-2.93819 12.67617,-4.09996 -3.78535,-2.62418 14.13934,-10.5668 11.90751,-5.65739 6.41052,2.61212 1.45118,-11.04218 11.49818,-6.30692 9.02705,1.61806 22.62684,6.75248 13.05112,16.83909 4.61444,2.98744 2.52958,10.64804 4.9647,1.23406 11.86691,-4.17675 5.95401,12.00064 6.41086,16.91888 1.37554,-4.86648 10.91151,-21.79225 8.18459,-7.30608 -2.21036,4.56087 -14.47862,16.40919 -3.76017,7.38628 6.57049,-10.11011 21.85442,4.27399 18.98251,6.25 5.38983,-3.77028 14.31289,5.48561 19.22203,10.73311 14.87747,13.74827 21.37034,33.26723 28.03953,51.86391 3.00087,7.98324 3.60072,14.5352 -0.86007,15.34866 -0.58865,37.26826 -2.67746,75.79163 -18.72548,110.0865 1.77773,16.63419 -21.56457,9.70113 -32.15346,13.56642 -8.40677,3.477 -23.02329,9.66847 -28.49214,8.22297 -6.13057,3.49478 -18.79475,5.38834 -9.98168,7.60533 14.71937,-1.23788 -2.95099,15.07172 -11.04873,11.24442 -0.36132,-1.47803 -2.89407,3.60221 -2.47547,1.28715 z M 337.5,609.71933 c -3.06645,-3.21518 -0.31598,3.44574 0,0 z m -76.5,-8.5 c 3.04991,-5.45962 -5.39078,5.54157 0,0 z m 131,-5.61803 c -1.71234,-2.22367 -2.81872,4.04227 -0.29375,0.8878 L 392,595.6013 z m -17.45773,-11.65551 c -4.23192,-1.04817 -3.32045,5.889 0,0 z M 352.6106,570.1275 c 3.87026,-4.00465 6.44902,-10.52177 -0.47684,-3.0062 -5.95885,-4.20181 1.33349,8.06792 -4.90118,2.3536 4.60094,-10.63525 -7.59926,0.30986 -8.98635,-9.16032 -5.9306,-0.12449 9.51174,21.94693 14.36437,9.81292 z M 335,558.71933 c -2.69252,-4.02999 -2.35666,3.89339 0,0 z m 3.91667,-2.28297 c -7.66162,-7.16932 -2.86517,0.68208 0,0 z m 23.6875,-37.4462 c -1.98686,1.82064 1.35419,3.83162 0,0 z m 39.4662,-26.13935 c -4.13578,-10.49838 -6.3358,-8.41413 -0.63549,0.32633 1.10107,4.05696 1.69249,0.0771 0.63549,-0.32633 z M 357,484.16031 c -2.77952,-1.90999 -1.95951,3.53544 0,0 z m 22,-1.94098 c -2.53031,-5.20727 -2.03781,5.01988 0,0 z m 1.66228,-2.75 c -1.65054,1.56105 1.02444,4.24816 0,0 z m 54.91644,-85.52381 c -4.64233,-3.69201 4.4956,5.96716 0,0 z M 328,393.71933 c -2.39488,-3.99516 -1.59482,3.71895 0,0 z m 104,-0.57143 c -5.35074,-9.28438 -4.13896,1.89396 0,0 z m -73.66643,-4.85546 c -1.31186,-9.02356 -2.98787,5.76814 0,0 z m 66.32871,-1.82311 c -1.65054,1.56105 1.02444,4.24816 0,0 z m -57.20422,-1.88214 c 2.9937,-10.61144 -5.42877,4.49469 0.15565,1.56281 l -0.15565,-1.56281 z m -4.72081,0.88214 c 1.99907,-9.30914 -1.92158,-5.88008 -3.75256,-5.44098 -3.39019,-3.93265 2.53101,10.33247 3.75256,5.44098 z M 424,384.26417 c -2.84775,-2.83804 -4.90594,1.36286 0,0 l 0,0 z m -85.48778,-10.23608 c 2.00387,-12.60778 -9.68728,13.21272 -1.62543,2.66496 l 1.62543,-2.66496 0,0 z M 342,364.37578 c -5.46359,2.0369 -3.32324,6.72154 0,0 z M 231,610.22246 c -7.94427,-1.91885 17.18123,-0.54519 13.88758,-1.12166 -3.87415,3.13346 -9.44659,2.31033 -13.88758,1.12166 z m 126,-3.44411 c 2.15095,-3.62489 2.78409,2.21242 0,0 z m -40,-4.5 c 2.52248,-3.91597 2.75406,2.10212 0,0 z m 47.07029,-5.25 c 2.85232,-14.96894 2.45483,2.80957 0,0 z m 106.48165,-5.69058 c 3.62037,0.4707 -5.03729,1.93039 0,0 z m -185.32575,-24.1921 c 6.2141,-4.16823 -3.91189,4.95053 0,0 z m 17.50714,-12.55043 c 5.83924,-3.22761 -2.65582,3.43918 0,0 z m 3.5343,-1.29304 c 3.97552,-6.93569 0.84147,2.72602 0,0 z m 43.46358,-47.66303 c 2.51951,-5.76129 -0.43769,6.73059 0,0 z M 352,504.83634 c 4.21519,-14.60791 4.4814,-3.52093 0,0 z m 24.54775,-31.76303 c 1.53945,-4.54392 11.09593,-11.36996 3.63837,-2.28867 -0.74397,2.10826 -8.07185,7.93143 -3.63837,2.28867 z m -0.27692,-28.95815 c 3.25764,-1.10202 2.68927,1.85703 0,0 z m -29.06242,-3.81292 c 3.85961,-7.20441 -3.41085,-9.64381 5.96058,-14.76559 2.08749,7.3133 19.48642,13.8145 18.08105,16.76882 -9.1102,-4.61436 -17.99945,-0.69011 -24.1314,-0.30921 l 0.0898,-1.69402 c 0,0 -4e-5,0 -4e-5,0 z m 5.77628,-2.33291 c -1.92168,-8.21699 -5.73711,3.73059 0,10e-5 l 0,-10e-5 z m 8.46725,-6.34293 c -4.21253,-9.95491 7.06609,9.67232 0,0 z M 364.75,420.05705 c 5.01382,-0.89443 1.57667,1.71685 0,0 z m -7.71482,-19.27198 c -5.45294,-8.71909 13.55759,4.35032 1.45649,1.36186 l -1.45651,-1.36186 2e-5,0 z m 7.58387,1.21997 c -1.61937,-6.16892 11.15668,-6.88525 2.07143,-0.83333 l -1.20759,0.8439 -0.86384,-0.0106 z M 321,381.24365 c 3.98374,-0.55955 -3.83733,-12.02163 3.16131,-3.2218 1.1415,1.42644 -2.52557,6.93028 -3.16131,3.2218 z m 26.14912,-1.19097 c -3.38857,-6.36806 5.08232,4.20369 0,0 z m 67.92983,-4.75002 c 0.79373,-5.07507 0.96127,4.06261 0,0 z M 336,363.27835 c 2.37476,-6.85097 2.33642,5.03018 0,0 z m 71.5,-3.62685 c -8.44732,-6.60687 12.98737,5.1062 0,0 l 0,0 z"
         style="fill:#000000" />
      <path
         sodipodi:nodetypes="cssssssssssscccsssscc"
         id="path3326"
         d="m 444.46256,806.78508 c -11.05367,-6.79192 -17.17733,-9.13013 -17.18385,-32.64345 -0.007,-26.11227 11.50199,-31.89303 19.532,-31.89303 5.96941,0 9.41049,5.23542 9.41049,14.31756 0,6.62076 -2.71743,14.7944 -4.91856,14.7944 -1.35193,0 -2.37321,-5.72966 -2.37321,-13.31428 0,-4.38214 -0.44944,-5.36572 -2.01591,-4.41173 -7.97835,4.85907 -15.04168,16.36389 -7.05877,32.00775 6.6798,13.09016 18.46661,9.68635 24.82064,-7.16768 5.61111,-14.88349 5.80353,-42.5098 0.41874,-60.11998 -1.70337,-5.57058 -5.71252,-18.57161 -8.90924,-28.89117 -8.41534,-27.16629 -10.67163,-44.22111 -10.67664,-80.70305 -0.002,-16.01158 -16.94222,-22.71641 -16.65575,-27.25453 l 17.69342,-18.35968 c 6.70576,7.45472 3.54421,-18.98583 15.49914,-7.35387 -4.01168,22.19775 -7.37226,69.8255 -2.10673,98.16769 0.90017,4.84529 3.97377,18.82695 6.83021,31.07033 8.62855,36.98393 13.37336,56.45806 11.94789,78.59603 -0.95485,14.82935 -6.11858,27.64025 -12.50885,35.9971 -5.74254,7.50978 -15.79188,10.81949 -21.74499,7.16162 l -3e-5,-3e-5 z"
         style="fill:#000000" />
    </g>
  </g>
</svg>
